<svg xmlns="http://www.w3.org/2000/svg" xmlns:xlink="http://www.w3.org/1999/xlink" width="1920" zoomAndPan="magnify" viewBox="0 0 1440 809.999993" height="1080" preserveAspectRatio="xMidYMid meet" version="1.0"><defs><filter x="0%" y="0%" width="100%" height="100%" id="2afcc2154b"><feColorMatrix values="0 0 0 0 1 0 0 0 0 1 0 0 0 0 1 0 0 0 1 0" color-interpolation-filters="sRGB"/></filter><g/><mask id="1999cdeeb8"><g filter="url(#2afcc2154b)"><rect x="-144" width="1728" fill="#000000" y="-80.999999" height="971.999992" fill-opacity="0.5882"/></g></mask><clipPath id="a8d7e6dd14"><path d="M 0.558594 0.125 L 651.199219 0.125 L 651.199219 205 L 0.558594 205 Z M 0.558594 0.125 " clip-rule="nonzero"/></clipPath><clipPath id="25a6987127"><rect x="0" width="652" y="0" height="205"/></clipPath><mask id="5addce0cf5"><g filter="url(#2afcc2154b)"><rect x="-144" width="1728" fill="#000000" y="-80.999999" height="971.999992" fill-opacity="0.8863"/></g></mask><clipPath id="62a9952050"><path d="M 0.0390625 0.125 L 650.679688 0.125 L 650.679688 205 L 0.0390625 205 Z M 0.0390625 0.125 " clip-rule="nonzero"/></clipPath><clipPath id="0dc9bc95f0"><rect x="0" width="651" y="0" height="205"/></clipPath></defs><rect x="-144" width="1728" fill="#ffffff" y="-80.999999" height="971.999992" fill-opacity="1"/><rect x="-144" width="1728" fill="#ffffff" y="-80.999999" height="971.999992" fill-opacity="1"/><rect x="-144" width="1728" fill="#775e9d" y="-80.999999" height="971.999992" fill-opacity="1"/><g mask="url(#1999cdeeb8)"><g transform="matrix(1, 0, 0, 1, 172, 605)"><g clip-path="url(#25a6987127)"><g clip-path="url(#a8d7e6dd14)"><path fill="#f9f7f7" d="M 651.164062 275.28125 C 651.164062 242.121094 635.941406 212.472656 612.003906 192.707031 C 612.917969 185.558594 613.4375 178.144531 613.4375 170.734375 C 613.4375 76.585938 537.070312 0.125 442.753906 0.125 C 406.195312 0.125 372.242188 11.699219 344.53125 31.203125 C 335.035156 15.339844 317.734375 4.675781 297.957031 4.675781 C 269.730469 4.675781 246.570312 26.261719 244.101562 53.699219 C 233.042969 49.539062 220.941406 47.328125 208.453125 47.328125 C 151.601562 47.328125 105.421875 93.363281 105.421875 150.316406 C 105.421875 156.429688 105.941406 162.539062 106.980469 168.390625 C 48.4375 168.78125 0.695312 216.765625 0.695312 275.28125 C 0.695312 323.265625 32.828125 364.226562 76.667969 377.621094 C 76.410156 379.570312 76.277344 381.648438 76.277344 383.601562 C 76.277344 412.339844 103.078125 435.613281 135.992188 435.613281 C 157.847656 435.613281 176.839844 425.34375 187.378906 410.128906 C 204.941406 419.878906 225.105469 425.601562 246.703125 425.601562 C 283.519531 425.601562 316.433594 409.476562 338.9375 383.859375 C 363.265625 415.460938 401.382812 435.875 444.316406 435.875 C 475.796875 435.875 504.679688 424.820312 527.445312 406.617188 C 531.347656 421.179688 548.257812 429.761719 565.820312 425.863281 C 583.773438 421.832031 595.613281 406.355469 592.230469 391.144531 C 590.800781 384.640625 586.765625 379.308594 581.304688 375.667969 C 622.023438 360.324219 651.164062 321.054688 651.164062 275.28125 Z M 651.164062 275.28125 " fill-opacity="1" fill-rule="nonzero"/></g></g></g></g><g fill="#fae75d" fill-opacity="1"><g transform="translate(474.703459, 128.684699)"><g><path d="M 2.109375 -11.46875 C 2.109375 -13.707031 2.785156 -15.429688 4.140625 -16.640625 C 5.492188 -17.847656 7.554688 -18.453125 10.328125 -18.453125 C 13.109375 -18.453125 15.160156 -17.847656 16.484375 -16.640625 C 17.816406 -15.429688 18.484375 -13.707031 18.484375 -11.46875 L 18.484375 0 L 14.828125 0 L 14.828125 -11.8125 C 14.828125 -14.269531 13.328125 -15.5 10.328125 -15.5 C 8.804688 -15.5 7.664062 -15.195312 6.90625 -14.59375 C 6.144531 -13.988281 5.765625 -13.0625 5.765625 -11.8125 L 5.765625 -8.078125 C 6.753906 -8.890625 7.929688 -9.296875 9.296875 -9.296875 L 11.46875 -9.296875 L 11.609375 -6.375 L 9.1875 -6.375 C 7.820312 -6.375 6.679688 -5.992188 5.765625 -5.234375 L 5.765625 0 L 2.109375 0 Z M 2.109375 -11.46875 "/></g></g></g><g fill="#fae75d" fill-opacity="1"><g transform="translate(495.32998, 128.684699)"><g><path d="M -5.265625 4.296875 L -7.375 4.296875 L -7.21875 1.90625 L -2.140625 1.90625 L -2.140625 8.453125 L -5.265625 8.453125 Z M -5.265625 4.296875 "/></g></g></g><g fill="#fae75d" fill-opacity="1"><g transform="translate(495.32998, 128.684699)"><g><path d="M 20.390625 0.328125 C 18.472656 0.328125 16.992188 -0.238281 15.953125 -1.375 C 14.910156 -2.519531 14.390625 -4.140625 14.390625 -6.234375 L 14.390625 -11.34375 C 14.390625 -12.882812 14.046875 -13.960938 13.359375 -14.578125 C 12.679688 -15.191406 11.523438 -15.5 9.890625 -15.5 C 8.816406 -15.5 7.804688 -15.34375 6.859375 -15.03125 C 5.910156 -14.71875 5.15625 -14.300781 4.59375 -13.78125 L 4.59375 -13.1875 L 8.421875 -12.21875 L 8.421875 -9.796875 C 7.546875 -9.566406 6.925781 -9.207031 6.5625 -8.71875 C 6.207031 -8.226562 6.03125 -7.492188 6.03125 -6.515625 L 6.03125 -4.328125 C 6.03125 -3.816406 6.140625 -3.445312 6.359375 -3.21875 C 6.585938 -3 6.953125 -2.890625 7.453125 -2.890625 L 9.296875 -2.890625 L 9.296875 0 L 5.671875 0 C 4.660156 0 3.863281 -0.3125 3.28125 -0.9375 C 2.707031 -1.5625 2.421875 -2.378906 2.421875 -3.390625 L 2.421875 -6.546875 C 2.421875 -8.773438 3.300781 -10.160156 5.0625 -10.703125 L 1.4375 -11.609375 L 1.4375 -15.359375 C 2.445312 -16.253906 3.679688 -16.992188 5.140625 -17.578125 C 6.609375 -18.160156 8.238281 -18.453125 10.03125 -18.453125 C 12.664062 -18.453125 14.644531 -17.878906 15.96875 -16.734375 C 17.289062 -15.597656 17.953125 -13.765625 17.953125 -11.234375 L 17.953125 -6.40625 C 17.953125 -5.039062 18.242188 -4.0625 18.828125 -3.46875 C 19.421875 -2.875 20.347656 -2.578125 21.609375 -2.578125 C 22.523438 -2.578125 23.394531 -2.769531 24.21875 -3.15625 C 25.050781 -3.550781 25.78125 -4.085938 26.40625 -4.765625 L 26.40625 -18.109375 L 30.0625 -18.109375 L 30.0625 0 L 26.734375 0 L 26.53125 -1.984375 C 25.6875 -1.222656 24.773438 -0.644531 23.796875 -0.25 C 22.828125 0.132812 21.691406 0.328125 20.390625 0.328125 Z M 20.390625 0.328125 "/></g></g></g><g fill="#fae75d" fill-opacity="1"><g transform="translate(527.527473, 128.684699)"><g><path d="M 2.109375 -11.46875 C 2.109375 -13.707031 2.785156 -15.429688 4.140625 -16.640625 C 5.492188 -17.847656 7.554688 -18.453125 10.328125 -18.453125 C 13.109375 -18.453125 15.160156 -17.847656 16.484375 -16.640625 C 17.816406 -15.429688 18.484375 -13.707031 18.484375 -11.46875 L 18.484375 0 L 14.828125 0 L 14.828125 -11.8125 C 14.828125 -14.269531 13.328125 -15.5 10.328125 -15.5 C 8.804688 -15.5 7.664062 -15.195312 6.90625 -14.59375 C 6.144531 -13.988281 5.765625 -13.0625 5.765625 -11.8125 L 5.765625 -8.078125 C 6.753906 -8.890625 7.929688 -9.296875 9.296875 -9.296875 L 11.46875 -9.296875 L 11.609375 -6.375 L 9.1875 -6.375 C 7.820312 -6.375 6.679688 -5.992188 5.765625 -5.234375 L 5.765625 0 L 2.109375 0 Z M 2.109375 -11.46875 "/></g></g></g><g fill="#fae75d" fill-opacity="1"><g transform="translate(548.153994, 128.684699)"><g><path d="M -15.96875 -23.421875 L -9.453125 -23.421875 L -9.453125 -26.203125 L -6.8125 -26.203125 L -6.8125 -23.421875 L -4.796875 -23.421875 L -4.796875 -26.203125 L -2.140625 -26.203125 L -2.140625 -20.859375 L -16.140625 -20.859375 Z M -15.96875 -23.421875 "/></g></g></g><g fill="#fae75d" fill-opacity="1"><g transform="translate(548.153994, 128.684699)"><g><path d="M 8.890625 0.328125 C 7.523438 0.328125 6.207031 0.207031 4.9375 -0.03125 C 3.675781 -0.28125 2.585938 -0.601562 1.671875 -1 L 1.671875 -10.328125 L 8.859375 -10.328125 L 9.03125 -7.546875 L 5.203125 -7.546875 L 5.203125 -3.15625 C 6.234375 -2.769531 7.460938 -2.578125 8.890625 -2.578125 C 10.234375 -2.578125 11.296875 -2.785156 12.078125 -3.203125 C 12.859375 -3.617188 13.425781 -4.289062 13.78125 -5.21875 C 14.144531 -6.144531 14.328125 -7.398438 14.328125 -8.984375 C 14.328125 -10.660156 14.125 -11.960938 13.71875 -12.890625 C 13.3125 -13.828125 12.65625 -14.492188 11.75 -14.890625 C 10.851562 -15.296875 9.585938 -15.5 7.953125 -15.5 C 5.753906 -15.5 3.753906 -15.207031 1.953125 -14.625 L 1.953125 -17.4375 C 2.890625 -17.75 3.96875 -17.992188 5.1875 -18.171875 C 6.40625 -18.359375 7.628906 -18.453125 8.859375 -18.453125 C 11.960938 -18.453125 14.234375 -17.660156 15.671875 -16.078125 C 17.117188 -14.503906 17.84375 -12.140625 17.84375 -8.984375 C 17.84375 -5.878906 17.117188 -3.550781 15.671875 -2 C 14.234375 -0.445312 11.972656 0.328125 8.890625 0.328125 Z M 8.890625 0.328125 "/></g></g></g><g fill="#fae75d" fill-opacity="1"><g transform="translate(567.438947, 128.684699)"><g><path d="M 2.109375 -11.46875 C 2.109375 -13.707031 2.785156 -15.429688 4.140625 -16.640625 C 5.492188 -17.847656 7.554688 -18.453125 10.328125 -18.453125 C 13.109375 -18.453125 15.160156 -17.847656 16.484375 -16.640625 C 17.816406 -15.429688 18.484375 -13.707031 18.484375 -11.46875 L 18.484375 0 L 14.828125 0 L 14.828125 -11.8125 C 14.828125 -14.269531 13.328125 -15.5 10.328125 -15.5 C 8.804688 -15.5 7.664062 -15.195312 6.90625 -14.59375 C 6.144531 -13.988281 5.765625 -13.0625 5.765625 -11.8125 L 5.765625 -8.078125 C 6.753906 -8.890625 7.929688 -9.296875 9.296875 -9.296875 L 11.46875 -9.296875 L 11.609375 -6.375 L 9.1875 -6.375 C 7.820312 -6.375 6.679688 -5.992188 5.765625 -5.234375 L 5.765625 0 L 2.109375 0 Z M 2.109375 -11.46875 "/></g></g></g><g fill="#fae75d" fill-opacity="1"><g transform="translate(588.065468, 128.684699)"><g><path d="M 8.28125 0.328125 C 6.34375 0.328125 4.828125 -0.242188 3.734375 -1.390625 C 2.648438 -2.546875 2.109375 -4.160156 2.109375 -6.234375 L 2.109375 -18.109375 L 5.765625 -18.109375 L 5.765625 -6.40625 C 5.765625 -5.0625 6.0625 -4.085938 6.65625 -3.484375 C 7.25 -2.878906 8.195312 -2.578125 9.5 -2.578125 C 10.457031 -2.578125 11.382812 -2.78125 12.28125 -3.1875 C 13.175781 -3.59375 13.925781 -4.117188 14.53125 -4.765625 L 14.53125 -18.109375 L 18.15625 -18.109375 L 18.15625 0 L 14.828125 0 L 14.65625 -1.984375 C 12.863281 -0.441406 10.738281 0.328125 8.28125 0.328125 Z M 8.28125 0.328125 "/></g></g></g><g fill="#fae75d" fill-opacity="1"><g transform="translate(608.356597, 128.684699)"><g><path d="M 2.109375 -18.109375 L 5.4375 -18.109375 L 5.640625 -16.140625 C 7.453125 -17.679688 9.597656 -18.453125 12.078125 -18.453125 C 13.972656 -18.453125 15.457031 -17.878906 16.53125 -16.734375 C 17.613281 -15.597656 18.15625 -14 18.15625 -11.9375 L 18.15625 0 L 14.53125 0 L 14.53125 -11.78125 C 14.53125 -13.070312 14.222656 -14.015625 13.609375 -14.609375 C 12.992188 -15.203125 12.046875 -15.5 10.765625 -15.5 C 9.804688 -15.5 8.890625 -15.296875 8.015625 -14.890625 C 7.140625 -14.492188 6.390625 -13.96875 5.765625 -13.3125 L 5.765625 0 L 2.109375 0 Z M 2.109375 -18.109375 "/></g></g></g><g fill="#fae75d" fill-opacity="1"><g transform="translate(628.647725, 128.684699)"><g><path d="M -15.96875 -23.421875 L -5.171875 -23.421875 L -5.171875 -26.203125 L -2.140625 -26.203125 L -2.140625 -20.859375 L -16.140625 -20.859375 Z M -15.96875 -23.421875 "/></g></g></g><g fill="#fae75d" fill-opacity="1"><g transform="translate(628.647725, 128.617614)"><g><path d="M -5.171875 -32.40625 L -2.140625 -32.40625 L -2.140625 -27.75 L -5.171875 -27.75 Z M -5.171875 -32.40625 "/></g></g></g><g fill="#fae75d" fill-opacity="1"><g transform="translate(628.647725, 128.684699)"><g><path d="M 11.96875 0.328125 C 10.65625 0.328125 9.488281 0.132812 8.46875 -0.25 C 7.445312 -0.644531 6.503906 -1.222656 5.640625 -1.984375 L 5.4375 0 L 2.109375 0 L 2.109375 -18.109375 L 5.765625 -18.109375 L 5.765625 -4.765625 C 6.390625 -4.117188 7.140625 -3.59375 8.015625 -3.1875 C 8.890625 -2.78125 9.804688 -2.578125 10.765625 -2.578125 C 12.046875 -2.578125 12.992188 -2.878906 13.609375 -3.484375 C 14.222656 -4.085938 14.53125 -5.0625 14.53125 -6.40625 L 14.53125 -18.109375 L 18.15625 -18.109375 L 18.15625 -6.234375 C 18.15625 -4.160156 17.609375 -2.546875 16.515625 -1.390625 C 15.429688 -0.242188 13.914062 0.328125 11.96875 0.328125 Z M 11.96875 0.328125 "/></g></g></g><g fill="#fae75d" fill-opacity="1"><g transform="translate(648.938854, 128.684699)"><g><path d="M -15.96875 -23.421875 L -5.171875 -23.421875 L -5.171875 -26.203125 L -2.140625 -26.203125 L -2.140625 -20.859375 L -16.140625 -20.859375 Z M -15.96875 -23.421875 "/></g></g></g><g fill="#fae75d" fill-opacity="1"><g transform="translate(648.938854, 128.684699)"><g><path d="M 9.328125 0.328125 C 8.859375 0.328125 8.34375 0.285156 7.78125 0.203125 C 7.21875 0.128906 6.769531 0.03125 6.4375 -0.09375 L 3.75 -7.25 L 1.4375 -7.25 L 1.609375 -10 L 6.078125 -10 L 8.859375 -2.546875 C 10.441406 -2.484375 11.710938 -2.988281 12.671875 -4.0625 C 13.640625 -5.132812 14.125 -6.851562 14.125 -9.21875 C 14.125 -10.8125 13.914062 -12.0625 13.5 -12.96875 C 13.082031 -13.875 12.40625 -14.519531 11.46875 -14.90625 C 10.53125 -15.300781 9.234375 -15.5 7.578125 -15.5 C 5.523438 -15.5 3.613281 -15.207031 1.84375 -14.625 L 1.84375 -17.4375 C 3.945312 -18.113281 6.179688 -18.453125 8.546875 -18.453125 C 11.679688 -18.453125 13.976562 -17.671875 15.4375 -16.109375 C 16.90625 -14.554688 17.640625 -12.257812 17.640625 -9.21875 C 17.640625 -7.207031 17.265625 -5.476562 16.515625 -4.03125 C 15.765625 -2.59375 14.757812 -1.503906 13.5 -0.765625 C 12.238281 -0.0351562 10.847656 0.328125 9.328125 0.328125 Z M 9.328125 0.328125 "/></g></g></g><g fill="#fae75d" fill-opacity="1"><g transform="translate(668.022586, 128.684699)"><g><path d="M -15.96875 -23.421875 L -2.140625 -23.421875 L -2.140625 -20.859375 L -16.140625 -20.859375 Z M -15.96875 -23.421875 "/></g></g></g><g fill="#fae75d" fill-opacity="1"><g transform="translate(668.022586, 128.684699)"><g><path d="M 8.859375 0.328125 C 6.597656 0.328125 4.796875 -0.421875 3.453125 -1.921875 C 2.109375 -3.429688 1.4375 -5.722656 1.4375 -8.796875 C 1.4375 -11.898438 1.957031 -14.285156 3 -15.953125 C 4.039062 -17.617188 5.507812 -18.453125 7.40625 -18.453125 C 8.28125 -18.453125 8.988281 -18.304688 9.53125 -18.015625 C 10.082031 -17.722656 10.582031 -17.285156 11.03125 -16.703125 C 11.5 -17.222656 12.113281 -17.644531 12.875 -17.96875 C 13.632812 -18.289062 14.410156 -18.453125 15.203125 -18.453125 C 16.609375 -18.453125 17.679688 -18.023438 18.421875 -17.171875 C 19.160156 -16.328125 19.53125 -15.132812 19.53125 -13.59375 L 19.53125 0 L 15.875 0 L 15.875 -13.046875 C 15.875 -13.941406 15.75 -14.570312 15.5 -14.9375 C 15.25 -15.3125 14.78125 -15.5 14.09375 -15.5 C 13.625 -15.5 13.203125 -15.367188 12.828125 -15.109375 C 12.460938 -14.859375 12.191406 -14.472656 12.015625 -13.953125 L 10 -13.953125 C 9.707031 -14.515625 9.414062 -14.910156 9.125 -15.140625 C 8.832031 -15.378906 8.429688 -15.5 7.921875 -15.5 C 6.816406 -15.5 6.046875 -14.925781 5.609375 -13.78125 C 5.179688 -12.644531 4.96875 -10.984375 4.96875 -8.796875 C 4.96875 -6.578125 5.34375 -4.984375 6.09375 -4.015625 C 6.84375 -3.054688 7.976562 -2.578125 9.5 -2.578125 C 10.519531 -2.578125 11.289062 -2.664062 11.8125 -2.84375 L 11.8125 -0.0625 C 11.050781 0.195312 10.066406 0.328125 8.859375 0.328125 Z M 8.859375 0.328125 "/></g></g></g><g fill="#fae75d" fill-opacity="1"><g transform="translate(689.688815, 128.684699)"><g><path d="M 5.203125 0 C 2.847656 0 1.671875 -1.160156 1.671875 -3.484375 L 1.671875 -11.234375 C 1.671875 -12.421875 1.898438 -13.40625 2.359375 -14.1875 C 2.816406 -14.96875 3.453125 -15.773438 4.265625 -16.609375 C 4.753906 -17.117188 5.101562 -17.523438 5.3125 -17.828125 C 5.53125 -18.128906 5.640625 -18.457031 5.640625 -18.8125 C 5.640625 -19.445312 5.460938 -19.878906 5.109375 -20.109375 C 4.765625 -20.347656 4.203125 -20.46875 3.421875 -20.46875 C 2.210938 -20.46875 0.992188 -20.128906 -0.234375 -19.453125 L -0.234375 -22.140625 C 0.410156 -22.546875 1.175781 -22.851562 2.0625 -23.0625 C 2.945312 -23.269531 3.8125 -23.375 4.65625 -23.375 C 6.226562 -23.375 7.410156 -23.039062 8.203125 -22.375 C 8.992188 -21.707031 9.390625 -20.757812 9.390625 -19.53125 C 9.390625 -18.769531 9.226562 -18.109375 8.90625 -17.546875 C 8.582031 -16.984375 8.097656 -16.359375 7.453125 -15.671875 C 6.734375 -14.816406 6.191406 -14.082031 5.828125 -13.46875 C 5.472656 -12.851562 5.296875 -12.078125 5.296875 -11.140625 L 5.296875 -4.390625 C 5.296875 -3.785156 5.390625 -3.382812 5.578125 -3.1875 C 5.773438 -2.988281 6.175781 -2.890625 6.78125 -2.890625 L 8.3125 -2.890625 L 8.3125 0 Z M 5.203125 0 "/></g></g></g><g fill="#fae75d" fill-opacity="1"><g transform="translate(699.549295, 128.684699)"><g><path d="M 9.328125 0.328125 C 8.859375 0.328125 8.34375 0.285156 7.78125 0.203125 C 7.21875 0.128906 6.769531 0.03125 6.4375 -0.09375 L 3.75 -7.25 L 1.4375 -7.25 L 1.609375 -10 L 6.078125 -10 L 8.859375 -2.546875 C 10.441406 -2.484375 11.710938 -2.988281 12.671875 -4.0625 C 13.640625 -5.132812 14.125 -6.851562 14.125 -9.21875 C 14.125 -10.8125 13.914062 -12.0625 13.5 -12.96875 C 13.082031 -13.875 12.40625 -14.519531 11.46875 -14.90625 C 10.53125 -15.300781 9.234375 -15.5 7.578125 -15.5 C 5.523438 -15.5 3.613281 -15.207031 1.84375 -14.625 L 1.84375 -17.4375 C 3.945312 -18.113281 6.179688 -18.453125 8.546875 -18.453125 C 11.679688 -18.453125 13.976562 -17.671875 15.4375 -16.109375 C 16.90625 -14.554688 17.640625 -12.257812 17.640625 -9.21875 C 17.640625 -7.207031 17.265625 -5.476562 16.515625 -4.03125 C 15.765625 -2.59375 14.757812 -1.503906 13.5 -0.765625 C 12.238281 -0.0351562 10.847656 0.328125 9.328125 0.328125 Z M 9.328125 0.328125 "/></g></g></g><g fill="#fae75d" fill-opacity="1"><g transform="translate(718.633027, 128.684699)"><g><path d="M 8.859375 0.328125 C 6.597656 0.328125 4.796875 -0.421875 3.453125 -1.921875 C 2.109375 -3.429688 1.4375 -5.722656 1.4375 -8.796875 C 1.4375 -11.859375 2.21875 -14.234375 3.78125 -15.921875 C 5.351562 -17.609375 7.660156 -18.453125 10.703125 -18.453125 C 12.671875 -18.453125 14.304688 -18.109375 15.609375 -17.421875 C 16.921875 -16.742188 17.882812 -15.847656 18.5 -14.734375 C 19.113281 -13.628906 19.421875 -12.410156 19.421875 -11.078125 L 19.421875 0 L 15.765625 0 L 15.765625 -10.90625 C 15.765625 -12.351562 15.367188 -13.476562 14.578125 -14.28125 C 13.785156 -15.09375 12.472656 -15.5 10.640625 -15.5 C 8.691406 -15.5 7.257812 -14.9375 6.34375 -13.8125 C 5.425781 -12.695312 4.96875 -11.023438 4.96875 -8.796875 C 4.96875 -6.578125 5.34375 -4.984375 6.09375 -4.015625 C 6.84375 -3.054688 7.976562 -2.578125 9.5 -2.578125 C 10.519531 -2.578125 11.289062 -2.664062 11.8125 -2.84375 L 11.8125 -0.0625 C 11.050781 0.195312 10.066406 0.328125 8.859375 0.328125 Z M 8.859375 0.328125 "/></g></g></g><g fill="#fae75d" fill-opacity="1"><g transform="translate(740.198639, 128.684699)"><g><path d="M -15.96875 -23.421875 L -5.171875 -23.421875 L -5.171875 -26.203125 L -2.140625 -26.203125 L -2.140625 -20.859375 L -16.140625 -20.859375 Z M -15.96875 -23.421875 "/></g></g></g><g fill="#fae75d" fill-opacity="1"><g transform="translate(740.198639, 128.684699)"><g><path d="M 5.640625 0 C 3.285156 0 2.109375 -1.160156 2.109375 -3.484375 L 2.109375 -18.109375 L 5.765625 -18.109375 L 5.765625 -4.390625 C 5.765625 -3.878906 5.878906 -3.5 6.109375 -3.25 C 6.347656 -3.007812 6.726562 -2.890625 7.25 -2.890625 L 8.59375 -2.890625 L 8.59375 0 Z M 13.78125 0 C 11.4375 0 10.265625 -1.160156 10.265625 -3.484375 L 10.265625 -18.109375 L 13.890625 -18.109375 L 13.890625 -4.390625 C 13.890625 -3.878906 14.003906 -3.5 14.234375 -3.25 C 14.472656 -3.007812 14.847656 -2.890625 15.359375 -2.890625 L 16.734375 -2.890625 L 16.734375 0 Z M 13.78125 0 "/></g></g></g><g fill="#fae75d" fill-opacity="1"><g transform="translate(758.376799, 128.684699)"><g><path d="M 7.71875 0.328125 C 5.863281 0.328125 4.367188 -0.117188 3.234375 -1.015625 C 2.109375 -1.921875 1.546875 -3.316406 1.546875 -5.203125 C 1.546875 -6.992188 2.148438 -8.375 3.359375 -9.34375 C 4.566406 -10.3125 6.3125 -10.796875 8.59375 -10.796875 L 14.125 -10.796875 L 14.125 -11.9375 C 14.125 -12.832031 13.976562 -13.535156 13.6875 -14.046875 C 13.394531 -14.566406 12.910156 -14.9375 12.234375 -15.15625 C 11.566406 -15.382812 10.640625 -15.5 9.453125 -15.5 C 7.328125 -15.5 5.363281 -15.207031 3.5625 -14.625 L 3.5625 -17.4375 C 4.476562 -17.726562 5.507812 -17.96875 6.65625 -18.15625 C 7.8125 -18.351562 8.945312 -18.453125 10.0625 -18.453125 C 12.695312 -18.453125 14.640625 -17.894531 15.890625 -16.78125 C 17.148438 -15.675781 17.78125 -13.953125 17.78125 -11.609375 L 17.78125 0 L 14.125 0 L 14.125 -7.984375 L 8.828125 -7.984375 C 7.523438 -7.984375 6.566406 -7.769531 5.953125 -7.34375 C 5.335938 -6.914062 5.03125 -6.203125 5.03125 -5.203125 C 5.03125 -4.234375 5.304688 -3.550781 5.859375 -3.15625 C 6.421875 -2.769531 7.363281 -2.578125 8.6875 -2.578125 C 9.582031 -2.578125 10.351562 -2.664062 11 -2.84375 L 11 -0.0625 C 10.039062 0.195312 8.945312 0.328125 7.71875 0.328125 Z M 7.71875 0.328125 "/></g></g></g><g fill="#fae75d" fill-opacity="1"><g transform="translate(778.298994, 128.684699)"><g><path d="M 1.4375 -15.46875 L 4.5625 -15.46875 L 4.5625 -13.828125 L 9.5 -13.828125 L 9.359375 -11.109375 L 1.4375 -11.109375 Z M 1.4375 -6.34375 L 4.5625 -6.34375 L 4.5625 -4.65625 L 9.5 -4.65625 L 9.359375 -1.984375 L 1.4375 -1.984375 Z M 1.4375 -6.34375 "/></g></g></g><g fill="#fae75d" fill-opacity="1"><g transform="translate(789.165662, 128.684699)"><g><path d="M 6.171875 0 C 3.828125 0 2.65625 -1.160156 2.65625 -3.484375 L 2.65625 -15.0625 C 2.65625 -17.476562 3.503906 -19.253906 5.203125 -20.390625 L -0.0625 -20.390625 L -0.0625 -23.28125 L 9.625 -23.28125 L 9.625 -20.53125 C 8.414062 -20.0625 7.550781 -19.347656 7.03125 -18.390625 C 6.519531 -17.441406 6.265625 -16.15625 6.265625 -14.53125 L 6.265625 -4.390625 C 6.265625 -3.785156 6.359375 -3.382812 6.546875 -3.1875 C 6.742188 -2.988281 7.144531 -2.890625 7.75 -2.890625 L 9.296875 -2.890625 L 9.296875 0 Z M 6.171875 0 "/></g></g></g><g fill="#fae75d" fill-opacity="1"><g transform="translate(799.260907, 128.684699)"><g><path d="M 11.96875 0.328125 C 10.65625 0.328125 9.488281 0.132812 8.46875 -0.25 C 7.445312 -0.644531 6.503906 -1.222656 5.640625 -1.984375 L 5.4375 0 L 2.109375 0 L 2.109375 -18.109375 L 5.765625 -18.109375 L 5.765625 -4.765625 C 6.390625 -4.117188 7.140625 -3.59375 8.015625 -3.1875 C 8.890625 -2.78125 9.804688 -2.578125 10.765625 -2.578125 C 12.046875 -2.578125 12.992188 -2.878906 13.609375 -3.484375 C 14.222656 -4.085938 14.53125 -5.0625 14.53125 -6.40625 L 14.53125 -18.109375 L 18.15625 -18.109375 L 18.15625 -6.234375 C 18.15625 -4.160156 17.609375 -2.546875 16.515625 -1.390625 C 15.429688 -0.242188 13.914062 0.328125 11.96875 0.328125 Z M 11.96875 0.328125 "/></g></g></g><g fill="#fae75d" fill-opacity="1"><g transform="translate(819.552036, 128.684699)"><g><path d="M -5.796875 -26.40625 L -2.140625 -26.40625 L -2.140625 -20.90625 L -5.796875 -20.90625 Z M -5.796875 -26.40625 "/></g></g></g><g fill="#fae75d" fill-opacity="1"><g transform="translate(819.552036, 128.684699)"><g><path d="M 5.703125 0 C 3.359375 0 2.1875 -1.160156 2.1875 -3.484375 L 2.1875 -18.109375 L 5.796875 -18.109375 L 5.796875 -4.390625 C 5.796875 -3.878906 5.914062 -3.5 6.15625 -3.25 C 6.394531 -3.007812 6.769531 -2.890625 7.28125 -2.890625 L 8.828125 -2.890625 L 8.828125 0 Z M 5.703125 0 "/></g></g></g><g fill="#fae75d" fill-opacity="1"><g transform="translate(829.848536, 128.684699)"><g><path d="M 2.109375 -18.109375 L 5.765625 -18.109375 L 5.765625 -12.40625 L 11 -12.40625 C 12.28125 -12.40625 13.179688 -12.671875 13.703125 -13.203125 C 14.234375 -13.742188 14.5 -14.597656 14.5 -15.765625 L 14.5 -18.109375 L 18.109375 -18.109375 L 18.109375 -15.875 C 18.109375 -13.320312 17.203125 -11.722656 15.390625 -11.078125 C 16.359375 -10.734375 17.023438 -10.191406 17.390625 -9.453125 C 17.765625 -8.722656 17.953125 -7.796875 17.953125 -6.671875 L 17.953125 0 L 14.328125 0 L 14.328125 -6.234375 C 14.328125 -7.535156 14.078125 -8.425781 13.578125 -8.90625 C 13.085938 -9.382812 12.1875 -9.625 10.875 -9.625 L 5.765625 -9.625 L 5.765625 0 L 2.109375 0 Z M 2.109375 -18.109375 "/></g></g></g><g fill="#fae75d" fill-opacity="1"><g transform="translate(850.106134, 128.684699)"><g><path d="M 11.96875 0.328125 C 10.65625 0.328125 9.488281 0.132812 8.46875 -0.25 C 7.445312 -0.644531 6.503906 -1.222656 5.640625 -1.984375 L 5.4375 0 L 2.109375 0 L 2.109375 -18.109375 L 5.765625 -18.109375 L 5.765625 -4.765625 C 6.390625 -4.117188 7.140625 -3.59375 8.015625 -3.1875 C 8.890625 -2.78125 9.804688 -2.578125 10.765625 -2.578125 C 12.046875 -2.578125 12.992188 -2.878906 13.609375 -3.484375 C 14.222656 -4.085938 14.53125 -5.0625 14.53125 -6.40625 L 14.53125 -18.109375 L 18.15625 -18.109375 L 18.15625 -6.234375 C 18.15625 -4.160156 17.609375 -2.546875 16.515625 -1.390625 C 15.429688 -0.242188 13.914062 0.328125 11.96875 0.328125 Z M 11.96875 0.328125 "/></g></g></g><g fill="#fae75d" fill-opacity="1"><g transform="translate(870.397286, 128.684699)"><g><path d="M -15.96875 -23.421875 L -9.453125 -23.421875 L -9.453125 -26.203125 L -6.8125 -26.203125 L -6.8125 -23.421875 L -4.796875 -23.421875 L -4.796875 -26.203125 L -2.140625 -26.203125 L -2.140625 -20.859375 L -16.140625 -20.859375 Z M -15.96875 -23.421875 "/></g></g></g><g fill="#fae75d" fill-opacity="1"><g transform="translate(870.397286, 128.684699)"><g><path d="M 8.890625 0.328125 C 7.523438 0.328125 6.207031 0.207031 4.9375 -0.03125 C 3.675781 -0.28125 2.585938 -0.601562 1.671875 -1 L 1.671875 -10.328125 L 8.859375 -10.328125 L 9.03125 -7.546875 L 5.203125 -7.546875 L 5.203125 -3.15625 C 6.234375 -2.769531 7.460938 -2.578125 8.890625 -2.578125 C 10.234375 -2.578125 11.296875 -2.785156 12.078125 -3.203125 C 12.859375 -3.617188 13.425781 -4.289062 13.78125 -5.21875 C 14.144531 -6.144531 14.328125 -7.398438 14.328125 -8.984375 C 14.328125 -10.660156 14.125 -11.960938 13.71875 -12.890625 C 13.3125 -13.828125 12.65625 -14.492188 11.75 -14.890625 C 10.851562 -15.296875 9.585938 -15.5 7.953125 -15.5 C 5.753906 -15.5 3.753906 -15.207031 1.953125 -14.625 L 1.953125 -17.4375 C 2.890625 -17.75 3.96875 -17.992188 5.1875 -18.171875 C 6.40625 -18.359375 7.628906 -18.453125 8.859375 -18.453125 C 11.960938 -18.453125 14.234375 -17.660156 15.671875 -16.078125 C 17.117188 -14.503906 17.84375 -12.140625 17.84375 -8.984375 C 17.84375 -5.878906 17.117188 -3.550781 15.671875 -2 C 14.234375 -0.445312 11.972656 0.328125 8.890625 0.328125 Z M 8.890625 0.328125 "/></g></g></g><g fill="#fae75d" fill-opacity="1"><g transform="translate(889.682228, 128.684699)"><g><path d="M 8.28125 0.328125 C 6.34375 0.328125 4.828125 -0.242188 3.734375 -1.390625 C 2.648438 -2.546875 2.109375 -4.160156 2.109375 -6.234375 L 2.109375 -18.109375 L 5.765625 -18.109375 L 5.765625 -6.40625 C 5.765625 -5.0625 6.0625 -4.085938 6.65625 -3.484375 C 7.25 -2.878906 8.195312 -2.578125 9.5 -2.578125 C 10.457031 -2.578125 11.382812 -2.78125 12.28125 -3.1875 C 13.175781 -3.59375 13.925781 -4.117188 14.53125 -4.765625 L 14.53125 -18.109375 L 18.15625 -18.109375 L 18.15625 0 L 14.828125 0 L 14.65625 -1.984375 C 12.863281 -0.441406 10.738281 0.328125 8.28125 0.328125 Z M 8.28125 0.328125 "/></g></g></g><g fill="#fae75d" fill-opacity="1"><g transform="translate(909.973335, 128.684699)"><g><path d="M 5.203125 0 C 2.847656 0 1.671875 -1.160156 1.671875 -3.484375 L 1.671875 -11.234375 C 1.671875 -12.421875 1.898438 -13.40625 2.359375 -14.1875 C 2.816406 -14.96875 3.453125 -15.773438 4.265625 -16.609375 C 4.753906 -17.117188 5.101562 -17.523438 5.3125 -17.828125 C 5.53125 -18.128906 5.640625 -18.457031 5.640625 -18.8125 C 5.640625 -19.445312 5.460938 -19.878906 5.109375 -20.109375 C 4.765625 -20.347656 4.203125 -20.46875 3.421875 -20.46875 C 2.210938 -20.46875 0.992188 -20.128906 -0.234375 -19.453125 L -0.234375 -22.140625 C 0.410156 -22.546875 1.175781 -22.851562 2.0625 -23.0625 C 2.945312 -23.269531 3.8125 -23.375 4.65625 -23.375 C 6.226562 -23.375 7.410156 -23.039062 8.203125 -22.375 C 8.992188 -21.707031 9.390625 -20.757812 9.390625 -19.53125 C 9.390625 -18.769531 9.226562 -18.109375 8.90625 -17.546875 C 8.582031 -16.984375 8.097656 -16.359375 7.453125 -15.671875 C 6.734375 -14.816406 6.191406 -14.082031 5.828125 -13.46875 C 5.472656 -12.851562 5.296875 -12.078125 5.296875 -11.140625 L 5.296875 -4.390625 C 5.296875 -3.785156 5.390625 -3.382812 5.578125 -3.1875 C 5.773438 -2.988281 6.175781 -2.890625 6.78125 -2.890625 L 8.3125 -2.890625 L 8.3125 0 Z M 5.203125 0 "/></g></g></g><g fill="#fae75d" fill-opacity="1"><g transform="translate(919.833838, 128.684699)"><g><path d="M 2.109375 -11.46875 C 2.109375 -13.707031 2.785156 -15.429688 4.140625 -16.640625 C 5.492188 -17.847656 7.554688 -18.453125 10.328125 -18.453125 C 13.109375 -18.453125 15.160156 -17.847656 16.484375 -16.640625 C 17.816406 -15.429688 18.484375 -13.707031 18.484375 -11.46875 L 18.484375 0 L 14.828125 0 L 14.828125 -11.8125 C 14.828125 -14.269531 13.328125 -15.5 10.328125 -15.5 C 8.804688 -15.5 7.664062 -15.195312 6.90625 -14.59375 C 6.144531 -13.988281 5.765625 -13.0625 5.765625 -11.8125 L 5.765625 -8.078125 C 6.753906 -8.890625 7.929688 -9.296875 9.296875 -9.296875 L 11.46875 -9.296875 L 11.609375 -6.375 L 9.1875 -6.375 C 7.820312 -6.375 6.679688 -5.992188 5.765625 -5.234375 L 5.765625 0 L 2.109375 0 Z M 2.109375 -11.46875 "/></g></g></g><g fill="#fae75d" fill-opacity="1"><g transform="translate(940.460348, 128.684699)"><g><path d="M 8.046875 0.328125 C 6.835938 0.328125 5.679688 0.25 4.578125 0.09375 C 3.472656 -0.0625 2.570312 -0.28125 1.875 -0.5625 L 1.875 -3.625 C 2.707031 -3.289062 3.613281 -3.03125 4.59375 -2.84375 C 5.582031 -2.664062 6.507812 -2.578125 7.375 -2.578125 C 9.007812 -2.578125 10.171875 -2.722656 10.859375 -3.015625 C 11.554688 -3.304688 11.90625 -3.890625 11.90625 -4.765625 C 11.90625 -5.296875 11.769531 -5.722656 11.5 -6.046875 C 11.238281 -6.378906 10.867188 -6.644531 10.390625 -6.84375 C 9.921875 -7.039062 9.195312 -7.296875 8.21875 -7.609375 L 6.90625 -8.046875 C 5.070312 -8.671875 3.703125 -9.359375 2.796875 -10.109375 C 1.890625 -10.859375 1.4375 -11.914062 1.4375 -13.28125 C 1.4375 -14.914062 2.050781 -16.1875 3.28125 -17.09375 C 4.507812 -18 6.320312 -18.453125 8.71875 -18.453125 C 9.707031 -18.453125 10.703125 -18.375 11.703125 -18.21875 C 12.710938 -18.0625 13.5625 -17.867188 14.25 -17.640625 L 14.25 -14.625 C 13.539062 -14.894531 12.734375 -15.109375 11.828125 -15.265625 C 10.921875 -15.421875 10.066406 -15.5 9.265625 -15.5 C 7.847656 -15.5 6.773438 -15.347656 6.046875 -15.046875 C 5.328125 -14.742188 4.96875 -14.191406 4.96875 -13.390625 C 4.96875 -12.921875 5.117188 -12.523438 5.421875 -12.203125 C 5.722656 -11.890625 6.128906 -11.628906 6.640625 -11.421875 C 7.148438 -11.210938 7.945312 -10.925781 9.03125 -10.5625 L 10 -10.265625 C 11.914062 -9.617188 13.300781 -8.910156 14.15625 -8.140625 C 15.007812 -7.367188 15.4375 -6.242188 15.4375 -4.765625 C 15.4375 -3.046875 14.785156 -1.765625 13.484375 -0.921875 C 12.191406 -0.0859375 10.378906 0.328125 8.046875 0.328125 Z M 8.046875 0.328125 "/></g></g></g><g fill="#fae75d" fill-opacity="1"><g transform="translate(627.058924, 205.13185)"><g><path d="M 2.6875 -10.0625 C 2.613281 -9.863281 2.578125 -9.675781 2.578125 -9.5 C 2.578125 -8.800781 3.035156 -8.21875 3.953125 -7.75 C 4.203125 -7.613281 5.117188 -7.253906 6.703125 -6.671875 C 7.867188 -6.222656 8.617188 -5.800781 8.953125 -5.40625 L 8.953125 -4.859375 C 8.953125 -4.054688 8.453125 -3.34375 7.453125 -2.71875 C 6.460938 -2.070312 5.421875 -1.75 4.328125 -1.75 C 4.304688 -1.75 4.21875 -1.757812 4.0625 -1.78125 C 3.90625 -1.800781 3.78125 -1.8125 3.6875 -1.8125 C 3.289062 -1.96875 3.09375 -2.210938 3.09375 -2.546875 C 3.09375 -2.816406 3.210938 -3.140625 3.453125 -3.515625 C 3.609375 -3.804688 3.773438 -4.046875 3.953125 -4.234375 L 3.890625 -4.234375 C 3.421875 -4.234375 2.691406 -3.972656 1.703125 -3.453125 C 0.660156 -2.867188 0.140625 -2.378906 0.140625 -1.984375 L 0.09375 -1.78125 C 0.09375 -1.445312 0.519531 -1.085938 1.375 -0.703125 C 2.488281 -0.253906 3.113281 0.0078125 3.25 0.09375 C 3.269531 0.164062 3.34375 0.222656 3.46875 0.265625 C 3.59375 0.304688 3.722656 0.328125 3.859375 0.328125 C 4.773438 0.328125 5.992188 -0.101562 7.515625 -0.96875 C 9.097656 -1.90625 10.046875 -2.847656 10.359375 -3.796875 C 10.410156 -3.921875 10.4375 -4.085938 10.4375 -4.296875 C 10.4375 -5.078125 9.921875 -5.835938 8.890625 -6.578125 C 8.660156 -6.734375 8.3125 -6.9375 7.84375 -7.1875 C 7.375 -7.445312 6.769531 -7.769531 6.03125 -8.15625 C 5.03125 -8.644531 4.53125 -9.035156 4.53125 -9.328125 L 4.59375 -9.421875 C 4.707031 -9.828125 5.132812 -10.1875 5.875 -10.5 C 6.632812 -10.8125 7.382812 -10.96875 8.125 -10.96875 C 8.382812 -10.96875 8.644531 -10.9375 8.90625 -10.875 C 9.164062 -10.820312 9.382812 -10.742188 9.5625 -10.640625 L 9.65625 -10.359375 C 9.65625 -10.234375 9.5 -10.113281 9.1875 -10 C 9.1875 -9.882812 9.410156 -9.828125 9.859375 -9.828125 C 10.328125 -9.828125 10.796875 -9.910156 11.265625 -10.078125 C 11.734375 -10.242188 11.992188 -10.441406 12.046875 -10.671875 C 11.753906 -11.359375 11.148438 -11.9375 10.234375 -12.40625 C 9.335938 -12.90625 8.453125 -13.15625 7.578125 -13.15625 L 7.21875 -13.15625 C 6.71875 -13.0625 6.269531 -12.953125 5.875 -12.828125 C 5.488281 -12.703125 5.148438 -12.5625 4.859375 -12.40625 C 3.921875 -11.894531 3.195312 -11.113281 2.6875 -10.0625 Z M 2.6875 -10.0625 "/></g></g></g><g fill="#fae75d" fill-opacity="1"><g transform="translate(641.044713, 205.13185)"><g><path d="M -1.671875 -15.390625 L -3.484375 -17.71875 C -4.359375 -18.789062 -5.1875 -19.601562 -5.96875 -20.15625 C -7.039062 -20.914062 -8.171875 -21.390625 -9.359375 -21.578125 C -9.472656 -21.617188 -9.582031 -21.640625 -9.6875 -21.640625 C -9.800781 -21.640625 -9.925781 -21.640625 -10.0625 -21.640625 C -11 -21.640625 -12.117188 -21.425781 -13.421875 -21 C -14.804688 -20.550781 -15.664062 -20.125 -16 -19.71875 C -16.019531 -19.695312 -16.03125 -19.617188 -16.03125 -19.484375 C -16.03125 -19.242188 -15.753906 -18.941406 -15.203125 -18.578125 C -15.066406 -18.492188 -14.90625 -18.394531 -14.71875 -18.28125 C -14.539062 -18.164062 -14.332031 -18.054688 -14.09375 -17.953125 C -13.863281 -17.765625 -13.375 -17.625 -12.625 -17.53125 C -11.875 -17.445312 -11.117188 -17.40625 -10.359375 -17.40625 C -8.992188 -17.40625 -7.765625 -17.257812 -6.671875 -16.96875 C -5.304688 -16.613281 -3.941406 -16 -2.578125 -15.125 C -2.421875 -15.039062 -2.289062 -15 -2.1875 -15 C -1.957031 -15 -1.785156 -15.128906 -1.671875 -15.390625 Z M -5.125 -18.046875 C -5.863281 -18.046875 -6.726562 -18.160156 -7.71875 -18.390625 C -7.78125 -18.410156 -8.03125 -18.46875 -8.46875 -18.5625 C -8.90625 -18.664062 -9.535156 -18.816406 -10.359375 -19.015625 C -10.878906 -19.128906 -11.347656 -19.222656 -11.765625 -19.296875 C -12.191406 -19.378906 -12.5625 -19.441406 -12.875 -19.484375 C -12.59375 -19.640625 -12.070312 -19.8125 -11.3125 -20 C -10.613281 -20.15625 -9.960938 -20.234375 -9.359375 -20.234375 C -9.242188 -20.234375 -9.125 -20.21875 -9 -20.1875 C -8.882812 -20.164062 -8.800781 -20.15625 -8.75 -20.15625 C -8.0625 -20.070312 -7.359375 -19.832031 -6.640625 -19.4375 C -5.921875 -19.050781 -5.414062 -18.585938 -5.125 -18.046875 Z M -5.125 -18.046875 "/></g></g></g><g fill="#fae75d" fill-opacity="1"><g transform="translate(641.044713, 205.13185)"><g><path d="M 12.046875 -5.234375 C 12.066406 -5.390625 12.09375 -5.59375 12.125 -5.84375 C 12.15625 -6.101562 12.171875 -6.335938 12.171875 -6.546875 C 12.171875 -7.503906 11.828125 -8.5 11.140625 -9.53125 C 10.460938 -10.5625 10.125 -11.234375 10.125 -11.546875 L 10.171875 -11.734375 C 10.171875 -12.316406 11.019531 -12.988281 12.71875 -13.75 C 13.457031 -14.0625 14.148438 -14.320312 14.796875 -14.53125 C 15.441406 -14.75 16.054688 -14.90625 16.640625 -15 L 16.78125 -14.96875 C 16.957031 -14.96875 17.046875 -14.890625 17.046875 -14.734375 L 17.046875 -14.59375 C 17.304688 -14.65625 17.554688 -14.816406 17.796875 -15.078125 C 18.035156 -15.335938 18.15625 -15.578125 18.15625 -15.796875 C 18.15625 -15.953125 18.097656 -16.09375 17.984375 -16.21875 C 17.867188 -16.34375 17.710938 -16.414062 17.515625 -16.4375 L 17.375 -16.4375 C 16.320312 -16.4375 14.757812 -15.976562 12.6875 -15.0625 C 10.644531 -14.164062 9.398438 -13.335938 8.953125 -12.578125 C 8.953125 -12.515625 8.9375 -12.410156 8.90625 -12.265625 C 8.875 -12.117188 8.859375 -12.019531 8.859375 -11.96875 C 8.859375 -11.476562 9.125 -10.65625 9.65625 -9.5 C 10.195312 -8.3125 10.46875 -7.4375 10.46875 -6.875 C 10.46875 -6.03125 10.207031 -5.226562 9.6875 -4.46875 C 9.289062 -3.863281 8.691406 -3.289062 7.890625 -2.75 C 7.640625 -2.570312 7.332031 -2.378906 6.96875 -2.171875 C 6.613281 -1.972656 6.210938 -1.753906 5.765625 -1.515625 L 5.4375 -1.40625 C 5.257812 -1.40625 5.148438 -1.453125 5.109375 -1.546875 C 5.078125 -1.648438 5.0625 -1.796875 5.0625 -1.984375 C 5.0625 -2.003906 5.800781 -3.457031 7.28125 -6.34375 C 7.945312 -7.632812 8.347656 -8.707031 8.484375 -9.5625 C 8.484375 -10.40625 8.226562 -11.15625 7.71875 -11.8125 C 7.15625 -12.476562 6.394531 -12.859375 5.4375 -12.953125 L 5.203125 -12.953125 C 4.234375 -12.953125 3.179688 -12.726562 2.046875 -12.28125 C 0.835938 -11.757812 0.203125 -11.195312 0.140625 -10.59375 C 0.140625 -10.3125 0.550781 -10.035156 1.375 -9.765625 C 2.195312 -9.492188 3.125 -9.359375 4.15625 -9.359375 C 4.425781 -9.359375 4.65625 -9.367188 4.84375 -9.390625 C 5.03125 -9.410156 5.382812 -9.46875 5.90625 -9.5625 L 5.90625 -9.65625 C 5.90625 -9.863281 5.632812 -10.054688 5.09375 -10.234375 C 4.582031 -10.390625 4.316406 -10.554688 4.296875 -10.734375 L 4.0625 -10.734375 C 3.8125 -10.734375 3.421875 -10.664062 2.890625 -10.53125 C 2.367188 -10.394531 2.039062 -10.328125 1.90625 -10.328125 C 1.84375 -10.328125 1.742188 -10.351562 1.609375 -10.40625 L 1.578125 -10.5 C 1.578125 -10.71875 2.015625 -11.019531 2.890625 -11.40625 C 3.785156 -11.78125 4.507812 -11.96875 5.0625 -11.96875 L 5.4375 -11.96875 C 5.90625 -11.96875 6.316406 -11.835938 6.671875 -11.578125 C 7.035156 -11.328125 7.21875 -11 7.21875 -10.59375 L 7.21875 -10.46875 C 7.21875 -9.507812 6.835938 -8.4375 6.078125 -7.25 C 5.960938 -7.070312 5.71875 -6.734375 5.34375 -6.234375 C 4.976562 -5.742188 4.503906 -5.109375 3.921875 -4.328125 C 3.160156 -3.335938 2.78125 -2.625 2.78125 -2.1875 L 2.890625 -1.875 C 3.023438 -1.757812 3.390625 -1.359375 3.984375 -0.671875 C 4.429688 -0.160156 4.90625 0.09375 5.40625 0.09375 C 5.507812 0.09375 5.648438 0.0703125 5.828125 0.03125 C 6.015625 -0.0078125 6.1875 -0.0507812 6.34375 -0.09375 C 6.945312 -0.539062 7.550781 -0.984375 8.15625 -1.421875 C 8.757812 -1.859375 9.363281 -2.300781 9.96875 -2.75 C 11.195312 -3.664062 11.890625 -4.492188 12.046875 -5.234375 Z M 12.046875 -5.234375 "/></g></g></g><g fill="#fae75d" fill-opacity="1"><g transform="translate(657.14346, 205.13185)"><g><path d="M 6.109375 -11.3125 L 6.171875 -10.875 C 6.171875 -10.332031 5.957031 -9.503906 5.53125 -8.390625 C 5.351562 -7.941406 5.140625 -7.425781 4.890625 -6.84375 C 4.648438 -6.257812 4.347656 -5.609375 3.984375 -4.890625 C 3.742188 -4.398438 3.484375 -3.867188 3.203125 -3.296875 C 2.921875 -2.734375 2.613281 -2.101562 2.28125 -1.40625 C 2.28125 -1.40625 2.351562 -1.316406 2.5 -1.140625 C 2.644531 -0.960938 2.863281 -0.679688 3.15625 -0.296875 C 3.351562 -0.0546875 3.566406 0.0625 3.796875 0.0625 L 4.0625 0.0625 C 4.332031 -0.5625 4.597656 -1.175781 4.859375 -1.78125 C 5.128906 -2.382812 5.390625 -3 5.640625 -3.625 C 5.992188 -4.445312 6.296875 -5.175781 6.546875 -5.8125 C 6.804688 -6.457031 7.015625 -7.023438 7.171875 -7.515625 C 7.648438 -8.804688 7.890625 -9.800781 7.890625 -10.5 C 7.835938 -10.769531 7.703125 -11.03125 7.484375 -11.28125 C 7.273438 -11.539062 7.003906 -11.789062 6.671875 -12.03125 C 6.335938 -12.28125 5.960938 -12.5 5.546875 -12.6875 C 5.140625 -12.882812 4.710938 -13.050781 4.265625 -13.1875 L 3.796875 -13.1875 C 3.117188 -13.1875 2.34375 -12.992188 1.46875 -12.609375 C 0.644531 -12.253906 0.132812 -11.820312 -0.0625 -11.3125 C 0.132812 -11.21875 0.445312 -10.914062 0.875 -10.40625 C 1.226562 -9.90625 1.648438 -9.65625 2.140625 -9.65625 L 2.078125 -9.765625 C 2.078125 -10.253906 2.367188 -10.722656 2.953125 -11.171875 C 3.535156 -11.597656 4.128906 -11.8125 4.734375 -11.8125 L 4.796875 -11.8125 C 5.109375 -11.8125 5.378906 -11.78125 5.609375 -11.71875 C 5.847656 -11.664062 6.015625 -11.53125 6.109375 -11.3125 Z M 6.109375 -11.3125 "/></g></g></g><g fill="#fae75d" fill-opacity="1"><g transform="translate(666.83625, 205.13185)"><g><path d="M 2.6875 -10.0625 C 2.613281 -9.863281 2.578125 -9.675781 2.578125 -9.5 C 2.578125 -8.800781 3.035156 -8.21875 3.953125 -7.75 C 4.203125 -7.613281 5.117188 -7.253906 6.703125 -6.671875 C 7.867188 -6.222656 8.617188 -5.800781 8.953125 -5.40625 L 8.953125 -4.859375 C 8.953125 -4.054688 8.453125 -3.34375 7.453125 -2.71875 C 6.460938 -2.070312 5.421875 -1.75 4.328125 -1.75 C 4.304688 -1.75 4.21875 -1.757812 4.0625 -1.78125 C 3.90625 -1.800781 3.78125 -1.8125 3.6875 -1.8125 C 3.289062 -1.96875 3.09375 -2.210938 3.09375 -2.546875 C 3.09375 -2.816406 3.210938 -3.140625 3.453125 -3.515625 C 3.609375 -3.804688 3.773438 -4.046875 3.953125 -4.234375 L 3.890625 -4.234375 C 3.421875 -4.234375 2.691406 -3.972656 1.703125 -3.453125 C 0.660156 -2.867188 0.140625 -2.378906 0.140625 -1.984375 L 0.09375 -1.78125 C 0.09375 -1.445312 0.519531 -1.085938 1.375 -0.703125 C 2.488281 -0.253906 3.113281 0.0078125 3.25 0.09375 C 3.269531 0.164062 3.34375 0.222656 3.46875 0.265625 C 3.59375 0.304688 3.722656 0.328125 3.859375 0.328125 C 4.773438 0.328125 5.992188 -0.101562 7.515625 -0.96875 C 9.097656 -1.90625 10.046875 -2.847656 10.359375 -3.796875 C 10.410156 -3.921875 10.4375 -4.085938 10.4375 -4.296875 C 10.4375 -5.078125 9.921875 -5.835938 8.890625 -6.578125 C 8.660156 -6.734375 8.3125 -6.9375 7.84375 -7.1875 C 7.375 -7.445312 6.769531 -7.769531 6.03125 -8.15625 C 5.03125 -8.644531 4.53125 -9.035156 4.53125 -9.328125 L 4.59375 -9.421875 C 4.707031 -9.828125 5.132812 -10.1875 5.875 -10.5 C 6.632812 -10.8125 7.382812 -10.96875 8.125 -10.96875 C 8.382812 -10.96875 8.644531 -10.9375 8.90625 -10.875 C 9.164062 -10.820312 9.382812 -10.742188 9.5625 -10.640625 L 9.65625 -10.359375 C 9.65625 -10.234375 9.5 -10.113281 9.1875 -10 C 9.1875 -9.882812 9.410156 -9.828125 9.859375 -9.828125 C 10.328125 -9.828125 10.796875 -9.910156 11.265625 -10.078125 C 11.734375 -10.242188 11.992188 -10.441406 12.046875 -10.671875 C 11.753906 -11.359375 11.148438 -11.9375 10.234375 -12.40625 C 9.335938 -12.90625 8.453125 -13.15625 7.578125 -13.15625 L 7.21875 -13.15625 C 6.71875 -13.0625 6.269531 -12.953125 5.875 -12.828125 C 5.488281 -12.703125 5.148438 -12.5625 4.859375 -12.40625 C 3.921875 -11.894531 3.195312 -11.113281 2.6875 -10.0625 Z M 2.6875 -10.0625 "/></g></g></g><g fill="#fae75d" fill-opacity="1"><g transform="translate(680.822039, 205.13185)"><g><path d="M -2.921875 -17.40625 L -2.6875 -17.375 C -1.945312 -17.375 -1.375 -17.441406 -0.96875 -17.578125 C -0.320312 -17.828125 0.144531 -18.238281 0.4375 -18.8125 C 0.5 -19.019531 0.53125 -19.234375 0.53125 -19.453125 C 0.53125 -19.878906 0.398438 -20.382812 0.140625 -20.96875 L -0.5625 -22.28125 L -0.703125 -22.28125 C -0.898438 -22.28125 -1.132812 -22.109375 -1.40625 -21.765625 C -1.445312 -21.722656 -1.515625 -21.617188 -1.609375 -21.453125 C -1.703125 -21.285156 -1.828125 -21.078125 -1.984375 -20.828125 L -1.953125 -20.765625 C -1.953125 -20.628906 -1.835938 -20.5625 -1.609375 -20.5625 C -1.492188 -20.5625 -1.347656 -20.582031 -1.171875 -20.625 C -0.972656 -20.5 -0.796875 -20.316406 -0.640625 -20.078125 C -0.484375 -19.835938 -0.40625 -19.628906 -0.40625 -19.453125 C -0.445312 -19.273438 -0.476562 -19.15625 -0.5 -19.09375 C -0.632812 -18.863281 -0.945312 -18.75 -1.4375 -18.75 C -1.957031 -18.75 -2.695312 -18.847656 -3.65625 -19.046875 C -3.96875 -19.117188 -4.367188 -19.222656 -4.859375 -19.359375 L -5.234375 -19.359375 C -5.921875 -19.359375 -6.4375 -19.144531 -6.78125 -18.71875 C -7.019531 -18.34375 -7.140625 -17.894531 -7.140625 -17.375 C -7.140625 -17.238281 -7.132812 -17.078125 -7.125 -16.890625 C -7.113281 -16.703125 -7.097656 -16.570312 -7.078125 -16.5 C -7.015625 -16.050781 -6.722656 -15.6875 -6.203125 -15.40625 C -5.691406 -15.132812 -5.144531 -15 -4.5625 -15 C -4.34375 -15 -4.128906 -15.03125 -3.921875 -15.09375 C -3.492188 -15.1875 -3.257812 -15.578125 -3.21875 -16.265625 C -3.195312 -16.960938 -3.097656 -17.34375 -2.921875 -17.40625 Z M -5.203125 -17.75 C -4.867188 -17.632812 -4.640625 -17.519531 -4.515625 -17.40625 C -4.390625 -17.300781 -4.328125 -17.132812 -4.328125 -16.90625 L -4.328125 -16.609375 C -4.460938 -16.472656 -4.640625 -16.40625 -4.859375 -16.40625 C -5.148438 -16.40625 -5.445312 -16.484375 -5.75 -16.640625 C -6.050781 -16.796875 -6.203125 -16.972656 -6.203125 -17.171875 L -6.203125 -17.34375 C -6.203125 -17.5 -6.09375 -17.601562 -5.875 -17.65625 C -5.664062 -17.71875 -5.441406 -17.75 -5.203125 -17.75 Z M -5.203125 -17.75 "/></g></g></g><g fill="#fae75d" fill-opacity="1"><g transform="translate(680.822039, 205.13185)"><g><path d="M 9.9375 -3.21875 C 10.113281 -2.96875 10.253906 -2.476562 10.359375 -1.75 C 10.472656 -0.488281 10.742188 0.140625 11.171875 0.140625 L 11.578125 0.09375 C 11.578125 0.0507812 11.5625 -0.0078125 11.53125 -0.09375 C 11.507812 -0.1875 11.5 -0.265625 11.5 -0.328125 C 11.5 -0.804688 11.617188 -1.359375 11.859375 -1.984375 C 12.097656 -2.609375 12.359375 -3.25 12.640625 -3.90625 C 12.929688 -4.5625 13.191406 -5.1875 13.421875 -5.78125 C 13.660156 -6.375 13.78125 -6.875 13.78125 -7.28125 L 13.828125 -8.3125 C 13.828125 -9.457031 13.613281 -10.398438 13.1875 -11.140625 C 12.757812 -11.878906 12.164062 -12.378906 11.40625 -12.640625 C 11.113281 -12.710938 10.8125 -12.769531 10.5 -12.8125 C 10.1875 -12.851562 9.90625 -12.875 9.65625 -12.875 C 7.53125 -12.875 5.585938 -11.859375 3.828125 -9.828125 C 2.210938 -8.035156 1.0625 -5.921875 0.375 -3.484375 C 0.632812 -3.378906 0.945312 -2.707031 1.3125 -1.46875 C 1.601562 -0.445312 2.21875 0.0625 3.15625 0.0625 L 3.484375 0.0625 C 4.378906 -0.351562 5.476562 -1.40625 6.78125 -3.09375 C 8.125 -4.832031 8.796875 -6.171875 8.796875 -7.109375 C 8.796875 -7.179688 8.78125 -7.269531 8.75 -7.375 C 8.726562 -7.488281 8.707031 -7.59375 8.6875 -7.6875 L 8.484375 -7.6875 C 7.929688 -7.6875 7.238281 -7.414062 6.40625 -6.875 C 5.582031 -6.382812 5.171875 -5.925781 5.171875 -5.5 L 5.203125 -5.40625 C 5.265625 -5.46875 5.375 -5.53125 5.53125 -5.59375 C 5.6875 -5.664062 5.832031 -5.703125 5.96875 -5.703125 C 6.007812 -5.703125 6.078125 -5.695312 6.171875 -5.6875 C 6.265625 -5.675781 6.320312 -5.660156 6.34375 -5.640625 C 6.207031 -5.296875 6.015625 -4.945312 5.765625 -4.59375 C 5.523438 -4.238281 5.253906 -3.890625 4.953125 -3.546875 C 4.648438 -3.210938 4.332031 -2.90625 4 -2.625 C 3.675781 -2.351562 3.347656 -2.113281 3.015625 -1.90625 C 3.015625 -3.34375 3.296875 -4.796875 3.859375 -6.265625 C 4.460938 -7.878906 5.289062 -9.179688 6.34375 -10.171875 C 7.550781 -11.304688 8.925781 -11.875 10.46875 -11.875 L 10.671875 -11.875 C 11.222656 -11.875 11.613281 -11.628906 11.84375 -11.140625 C 12.019531 -10.734375 12.109375 -10.207031 12.109375 -9.5625 C 12.109375 -9.175781 12.097656 -8.820312 12.078125 -8.5 C 12.054688 -8.175781 12.019531 -7.859375 11.96875 -7.546875 C 11.789062 -6.515625 11.523438 -5.617188 11.171875 -4.859375 C 10.785156 -3.941406 10.375 -3.394531 9.9375 -3.21875 Z M 9.9375 -3.21875 "/></g></g></g><g fill="#fae75d" fill-opacity="1"><g transform="translate(696.551851, 205.13185)"><g/></g></g><g fill="#fae75d" fill-opacity="1"><g transform="translate(706.378789, 205.13185)"><g><path d="M 0.296875 -10.828125 C 0.503906 -10.722656 0.75 -10.578125 1.03125 -10.390625 C 1.320312 -10.210938 1.660156 -10.003906 2.046875 -9.765625 C 2.765625 -9.398438 3.769531 -9.21875 5.0625 -9.21875 L 5.796875 -9.265625 C 5.796875 -9.523438 5.660156 -9.769531 5.390625 -10 C 5.128906 -10.238281 4.863281 -10.375 4.59375 -10.40625 C 4.320312 -10.351562 4.046875 -10.300781 3.765625 -10.25 C 3.492188 -10.195312 3.234375 -10.171875 2.984375 -10.171875 C 2.628906 -10.171875 2.335938 -10.207031 2.109375 -10.28125 C 1.890625 -10.363281 1.78125 -10.46875 1.78125 -10.59375 L 1.8125 -10.640625 L 1.78125 -10.734375 C 1.78125 -10.929688 1.90625 -11.101562 2.15625 -11.25 C 2.414062 -11.394531 2.703125 -11.46875 3.015625 -11.46875 L 3.5625 -11.46875 C 3.601562 -11.46875 3.703125 -11.425781 3.859375 -11.34375 C 4.078125 -11.207031 4.289062 -11.140625 4.5 -11.140625 L 4.5 -11.078125 C 4.582031 -11.078125 4.90625 -11.21875 5.46875 -11.5 C 6.050781 -11.8125 6.441406 -11.96875 6.640625 -11.96875 C 6.953125 -11.925781 7.175781 -11.75 7.3125 -11.4375 C 7.40625 -11.238281 7.453125 -10.957031 7.453125 -10.59375 L 7.453125 -10.46875 C 7.453125 -9.550781 7.070312 -8.476562 6.3125 -7.25 C 6.0625 -6.84375 5.351562 -5.867188 4.1875 -4.328125 C 3.457031 -3.316406 3.09375 -2.601562 3.09375 -2.1875 C 3.09375 -2.070312 3.113281 -1.96875 3.15625 -1.875 C 3.289062 -1.8125 3.648438 -1.410156 4.234375 -0.671875 C 4.671875 -0.160156 5.140625 0.09375 5.640625 0.09375 C 5.742188 0.09375 5.878906 0.0703125 6.046875 0.03125 C 6.222656 -0.0078125 6.398438 -0.0507812 6.578125 -0.09375 C 7.160156 -0.539062 7.753906 -0.984375 8.359375 -1.421875 C 8.960938 -1.859375 9.566406 -2.300781 10.171875 -2.75 C 11.367188 -3.664062 12.070312 -4.492188 12.28125 -5.234375 C 12.34375 -5.503906 12.375 -5.738281 12.375 -5.9375 C 12.375 -6.132812 12.375 -6.335938 12.375 -6.546875 C 12.375 -7.503906 12.039062 -8.488281 11.375 -9.5 C 10.695312 -10.519531 10.359375 -11.203125 10.359375 -11.546875 C 10.410156 -11.671875 10.4375 -11.734375 10.4375 -11.734375 C 10.4375 -12.316406 11.285156 -12.988281 12.984375 -13.75 C 13.722656 -14.0625 14.414062 -14.320312 15.0625 -14.53125 C 15.707031 -14.75 16.320312 -14.90625 16.90625 -15 L 17.015625 -14.96875 C 17.191406 -14.96875 17.28125 -14.890625 17.28125 -14.734375 L 17.28125 -14.59375 C 17.570312 -14.65625 17.828125 -14.816406 18.046875 -15.078125 C 18.273438 -15.335938 18.390625 -15.578125 18.390625 -15.796875 C 18.390625 -15.953125 18.332031 -16.09375 18.21875 -16.21875 C 18.101562 -16.34375 17.945312 -16.414062 17.75 -16.4375 L 17.609375 -16.4375 C 16.554688 -16.4375 14.976562 -15.976562 12.875 -15.0625 C 10.820312 -14.144531 9.59375 -13.316406 9.1875 -12.578125 C 9.144531 -12.460938 9.113281 -12.347656 9.09375 -12.234375 C 9.070312 -12.128906 9.0625 -12.039062 9.0625 -11.96875 C 9.0625 -11.476562 9.328125 -10.65625 9.859375 -9.5 C 10.398438 -8.3125 10.671875 -7.4375 10.671875 -6.875 C 10.671875 -6.03125 10.410156 -5.226562 9.890625 -4.46875 C 9.515625 -3.882812 8.910156 -3.3125 8.078125 -2.75 C 7.835938 -2.570312 7.539062 -2.375 7.1875 -2.15625 C 6.84375 -1.945312 6.445312 -1.734375 6 -1.515625 C 5.957031 -1.515625 5.90625 -1.5 5.84375 -1.46875 C 5.789062 -1.445312 5.742188 -1.425781 5.703125 -1.40625 C 5.523438 -1.40625 5.410156 -1.460938 5.359375 -1.578125 C 5.316406 -1.691406 5.296875 -1.828125 5.296875 -1.984375 C 5.347656 -2.046875 5.554688 -2.4375 5.921875 -3.15625 C 6.285156 -3.875 6.828125 -4.9375 7.546875 -6.34375 C 8.191406 -7.6875 8.582031 -8.757812 8.71875 -9.5625 C 8.71875 -10.226562 8.597656 -10.875 8.359375 -11.5 C 8.046875 -12.238281 7.609375 -12.710938 7.046875 -12.921875 C 6.972656 -12.941406 6.796875 -12.953125 6.515625 -12.953125 C 6.242188 -12.953125 5.863281 -12.863281 5.375 -12.6875 C 5.257812 -12.632812 5.148438 -12.585938 5.046875 -12.546875 C 4.941406 -12.503906 4.835938 -12.457031 4.734375 -12.40625 L 4.5 -12.375 C 4.320312 -12.375 4.097656 -12.429688 3.828125 -12.546875 C 3.773438 -12.566406 3.628906 -12.65625 3.390625 -12.8125 L 3.15625 -12.8125 C 2.632812 -12.8125 2.015625 -12.585938 1.296875 -12.140625 C 0.585938 -11.691406 0.234375 -11.300781 0.234375 -10.96875 C 0.234375 -10.96875 0.253906 -10.921875 0.296875 -10.828125 Z M 0.296875 -10.828125 "/></g></g></g><g fill="#fae75d" fill-opacity="1"><g transform="translate(722.443993, 205.13185)"><g><path d="M -1.671875 -15.390625 L -3.484375 -17.71875 C -4.359375 -18.789062 -5.1875 -19.601562 -5.96875 -20.15625 C -7.039062 -20.914062 -8.171875 -21.390625 -9.359375 -21.578125 C -9.472656 -21.617188 -9.582031 -21.640625 -9.6875 -21.640625 C -9.800781 -21.640625 -9.925781 -21.640625 -10.0625 -21.640625 C -11 -21.640625 -12.117188 -21.425781 -13.421875 -21 C -14.804688 -20.550781 -15.664062 -20.125 -16 -19.71875 C -16.019531 -19.695312 -16.03125 -19.617188 -16.03125 -19.484375 C -16.03125 -19.242188 -15.753906 -18.941406 -15.203125 -18.578125 C -15.066406 -18.492188 -14.90625 -18.394531 -14.71875 -18.28125 C -14.539062 -18.164062 -14.332031 -18.054688 -14.09375 -17.953125 C -13.863281 -17.765625 -13.375 -17.625 -12.625 -17.53125 C -11.875 -17.445312 -11.117188 -17.40625 -10.359375 -17.40625 C -8.992188 -17.40625 -7.765625 -17.257812 -6.671875 -16.96875 C -5.304688 -16.613281 -3.941406 -16 -2.578125 -15.125 C -2.421875 -15.039062 -2.289062 -15 -2.1875 -15 C -1.957031 -15 -1.785156 -15.128906 -1.671875 -15.390625 Z M -5.125 -18.046875 C -5.863281 -18.046875 -6.726562 -18.160156 -7.71875 -18.390625 C -7.78125 -18.410156 -8.03125 -18.46875 -8.46875 -18.5625 C -8.90625 -18.664062 -9.535156 -18.816406 -10.359375 -19.015625 C -10.878906 -19.128906 -11.347656 -19.222656 -11.765625 -19.296875 C -12.191406 -19.378906 -12.5625 -19.441406 -12.875 -19.484375 C -12.59375 -19.640625 -12.070312 -19.8125 -11.3125 -20 C -10.613281 -20.15625 -9.960938 -20.234375 -9.359375 -20.234375 C -9.242188 -20.234375 -9.125 -20.21875 -9 -20.1875 C -8.882812 -20.164062 -8.800781 -20.15625 -8.75 -20.15625 C -8.0625 -20.070312 -7.359375 -19.832031 -6.640625 -19.4375 C -5.921875 -19.050781 -5.414062 -18.585938 -5.125 -18.046875 Z M -5.125 -18.046875 "/></g></g></g><g fill="#fae75d" fill-opacity="1"><g transform="translate(722.443993, 205.13185)"><g><path d="M 16.5 -12.484375 C 16.394531 -12.410156 16.265625 -12.375 16.109375 -12.375 C 16.015625 -12.375 15.804688 -12.40625 15.484375 -12.46875 C 15.160156 -12.539062 14.929688 -12.578125 14.796875 -12.578125 C 14.546875 -12.578125 14.320312 -12.476562 14.125 -12.28125 C 13.675781 -11.5625 13.015625 -10.039062 12.140625 -7.71875 L 10.125 -1.984375 C 9.75 -2.472656 9.320312 -2.882812 8.84375 -3.21875 C 8.363281 -3.550781 7.910156 -3.765625 7.484375 -3.859375 C 7.640625 -4.347656 7.804688 -4.847656 7.984375 -5.359375 C 8.160156 -5.878906 8.316406 -6.351562 8.453125 -6.78125 C 8.566406 -6.757812 8.671875 -6.734375 8.765625 -6.703125 C 8.867188 -6.679688 8.976562 -6.660156 9.09375 -6.640625 C 9.269531 -6.597656 9.441406 -6.546875 9.609375 -6.484375 C 9.773438 -6.429688 9.925781 -6.375 10.0625 -6.3125 L 10.0625 -6.375 C 10.0625 -6.6875 9.847656 -6.988281 9.421875 -7.28125 C 9.316406 -7.363281 9.1875 -7.453125 9.03125 -7.546875 C 8.875 -7.640625 8.691406 -7.738281 8.484375 -7.84375 L 8.484375 -8.828125 C 8.484375 -10.078125 8.285156 -11.023438 7.890625 -11.671875 C 7.328125 -12.546875 6.226562 -13.117188 4.59375 -13.390625 C 4.082031 -13.390625 3.546875 -13.253906 2.984375 -12.984375 C 2.453125 -12.734375 2.1875 -12.421875 2.1875 -12.046875 C 2.1875 -12.023438 2.195312 -12 2.21875 -11.96875 C 2.238281 -11.945312 2.25 -11.925781 2.25 -11.90625 C 2.601562 -10.96875 3.0625 -10.175781 3.625 -9.53125 C 4.539062 -8.40625 5.722656 -7.597656 7.171875 -7.109375 C 7.066406 -6.753906 6.984375 -6.46875 6.921875 -6.25 C 6.867188 -6.039062 6.832031 -5.890625 6.8125 -5.796875 C 6.632812 -5.304688 6.398438 -4.863281 6.109375 -4.46875 C 5.972656 -4.46875 5.734375 -4.484375 5.390625 -4.515625 C 5.054688 -4.546875 4.828125 -4.5625 4.703125 -4.5625 C 3.847656 -4.5625 2.984375 -4.414062 2.109375 -4.125 C 1.578125 -3.925781 0.929688 -3.625 0.171875 -3.21875 L 0.140625 -3.15625 C 0.140625 -2.613281 0.503906 -2 1.234375 -1.3125 C 2.066406 -0.476562 2.921875 -0.0625 3.796875 -0.0625 C 4.484375 -0.0625 5.140625 -0.410156 5.765625 -1.109375 C 6.210938 -1.617188 6.628906 -2.300781 7.015625 -3.15625 C 7.640625 -2.84375 8.242188 -2.441406 8.828125 -1.953125 C 9.140625 -1.660156 9.425781 -1.363281 9.6875 -1.0625 C 9.957031 -0.757812 10.207031 -0.425781 10.4375 -0.0625 C 10.5 0 10.601562 0.0507812 10.75 0.09375 C 10.894531 0.144531 11.035156 0.171875 11.171875 0.171875 C 11.523438 0.171875 11.726562 0.0546875 11.78125 -0.171875 C 11.84375 -0.347656 12.007812 -0.828125 12.28125 -1.609375 C 12.550781 -2.390625 12.910156 -3.472656 13.359375 -4.859375 C 14.003906 -6.878906 14.539062 -8.332031 14.96875 -9.21875 C 15.519531 -10.5 15.988281 -11.140625 16.375 -11.140625 L 16.5 -11.140625 C 16.550781 -11.273438 16.585938 -11.363281 16.609375 -11.40625 C 16.671875 -11.625 16.703125 -11.8125 16.703125 -11.96875 C 16.703125 -12.195312 16.632812 -12.367188 16.5 -12.484375 Z M 2.546875 -2.3125 C 2.953125 -2.757812 3.398438 -3.0625 3.890625 -3.21875 C 4.296875 -3.332031 4.800781 -3.390625 5.40625 -3.390625 C 5.382812 -3.210938 5.3125 -3.023438 5.1875 -2.828125 C 5.0625 -2.640625 4.910156 -2.460938 4.734375 -2.296875 C 4.554688 -2.128906 4.363281 -1.984375 4.15625 -1.859375 C 3.957031 -1.734375 3.769531 -1.660156 3.59375 -1.640625 L 3.328125 -1.578125 C 3.171875 -1.578125 2.984375 -1.644531 2.765625 -1.78125 C 2.554688 -1.914062 2.453125 -2.035156 2.453125 -2.140625 Z M 7.484375 -8.359375 C 6.609375 -8.515625 5.8125 -8.78125 5.09375 -9.15625 C 4.226562 -9.582031 3.796875 -10.03125 3.796875 -10.5 C 3.796875 -10.832031 3.929688 -11.109375 4.203125 -11.328125 C 4.484375 -11.554688 4.804688 -11.671875 5.171875 -11.671875 C 5.304688 -11.710938 5.425781 -11.734375 5.53125 -11.734375 C 5.644531 -11.734375 5.757812 -11.734375 5.875 -11.734375 C 6.476562 -11.734375 6.9375 -11.535156 7.25 -11.140625 C 7.488281 -10.753906 7.609375 -10.316406 7.609375 -9.828125 C 7.609375 -9.628906 7.585938 -9.359375 7.546875 -9.015625 C 7.503906 -8.679688 7.484375 -8.460938 7.484375 -8.359375 Z M 7.484375 -8.359375 "/></g></g></g><g fill="#fae75d" fill-opacity="1"><g transform="translate(740.756313, 205.13185)"><g><path d="M 16.5 -12.484375 C 16.394531 -12.410156 16.265625 -12.375 16.109375 -12.375 C 16.015625 -12.375 15.804688 -12.40625 15.484375 -12.46875 C 15.160156 -12.539062 14.929688 -12.578125 14.796875 -12.578125 C 14.546875 -12.578125 14.320312 -12.476562 14.125 -12.28125 C 13.675781 -11.5625 13.015625 -10.039062 12.140625 -7.71875 L 10.125 -1.984375 C 9.75 -2.472656 9.320312 -2.882812 8.84375 -3.21875 C 8.363281 -3.550781 7.910156 -3.765625 7.484375 -3.859375 C 7.640625 -4.347656 7.804688 -4.847656 7.984375 -5.359375 C 8.160156 -5.878906 8.316406 -6.351562 8.453125 -6.78125 C 8.566406 -6.757812 8.671875 -6.734375 8.765625 -6.703125 C 8.867188 -6.679688 8.976562 -6.660156 9.09375 -6.640625 C 9.269531 -6.597656 9.441406 -6.546875 9.609375 -6.484375 C 9.773438 -6.429688 9.925781 -6.375 10.0625 -6.3125 L 10.0625 -6.375 C 10.0625 -6.6875 9.847656 -6.988281 9.421875 -7.28125 C 9.316406 -7.363281 9.1875 -7.453125 9.03125 -7.546875 C 8.875 -7.640625 8.691406 -7.738281 8.484375 -7.84375 L 8.484375 -8.828125 C 8.484375 -10.078125 8.285156 -11.023438 7.890625 -11.671875 C 7.328125 -12.546875 6.226562 -13.117188 4.59375 -13.390625 C 4.082031 -13.390625 3.546875 -13.253906 2.984375 -12.984375 C 2.453125 -12.734375 2.1875 -12.421875 2.1875 -12.046875 C 2.1875 -12.023438 2.195312 -12 2.21875 -11.96875 C 2.238281 -11.945312 2.25 -11.925781 2.25 -11.90625 C 2.601562 -10.96875 3.0625 -10.175781 3.625 -9.53125 C 4.539062 -8.40625 5.722656 -7.597656 7.171875 -7.109375 C 7.066406 -6.753906 6.984375 -6.46875 6.921875 -6.25 C 6.867188 -6.039062 6.832031 -5.890625 6.8125 -5.796875 C 6.632812 -5.304688 6.398438 -4.863281 6.109375 -4.46875 C 5.972656 -4.46875 5.734375 -4.484375 5.390625 -4.515625 C 5.054688 -4.546875 4.828125 -4.5625 4.703125 -4.5625 C 3.847656 -4.5625 2.984375 -4.414062 2.109375 -4.125 C 1.578125 -3.925781 0.929688 -3.625 0.171875 -3.21875 L 0.140625 -3.15625 C 0.140625 -2.613281 0.503906 -2 1.234375 -1.3125 C 2.066406 -0.476562 2.921875 -0.0625 3.796875 -0.0625 C 4.484375 -0.0625 5.140625 -0.410156 5.765625 -1.109375 C 6.210938 -1.617188 6.628906 -2.300781 7.015625 -3.15625 C 7.640625 -2.84375 8.242188 -2.441406 8.828125 -1.953125 C 9.140625 -1.660156 9.425781 -1.363281 9.6875 -1.0625 C 9.957031 -0.757812 10.207031 -0.425781 10.4375 -0.0625 C 10.5 0 10.601562 0.0507812 10.75 0.09375 C 10.894531 0.144531 11.035156 0.171875 11.171875 0.171875 C 11.523438 0.171875 11.726562 0.0546875 11.78125 -0.171875 C 11.84375 -0.347656 12.007812 -0.828125 12.28125 -1.609375 C 12.550781 -2.390625 12.910156 -3.472656 13.359375 -4.859375 C 14.003906 -6.878906 14.539062 -8.332031 14.96875 -9.21875 C 15.519531 -10.5 15.988281 -11.140625 16.375 -11.140625 L 16.5 -11.140625 C 16.550781 -11.273438 16.585938 -11.363281 16.609375 -11.40625 C 16.671875 -11.625 16.703125 -11.8125 16.703125 -11.96875 C 16.703125 -12.195312 16.632812 -12.367188 16.5 -12.484375 Z M 2.546875 -2.3125 C 2.953125 -2.757812 3.398438 -3.0625 3.890625 -3.21875 C 4.296875 -3.332031 4.800781 -3.390625 5.40625 -3.390625 C 5.382812 -3.210938 5.3125 -3.023438 5.1875 -2.828125 C 5.0625 -2.640625 4.910156 -2.460938 4.734375 -2.296875 C 4.554688 -2.128906 4.363281 -1.984375 4.15625 -1.859375 C 3.957031 -1.734375 3.769531 -1.660156 3.59375 -1.640625 L 3.328125 -1.578125 C 3.171875 -1.578125 2.984375 -1.644531 2.765625 -1.78125 C 2.554688 -1.914062 2.453125 -2.035156 2.453125 -2.140625 Z M 7.484375 -8.359375 C 6.609375 -8.515625 5.8125 -8.78125 5.09375 -9.15625 C 4.226562 -9.582031 3.796875 -10.03125 3.796875 -10.5 C 3.796875 -10.832031 3.929688 -11.109375 4.203125 -11.328125 C 4.484375 -11.554688 4.804688 -11.671875 5.171875 -11.671875 C 5.304688 -11.710938 5.425781 -11.734375 5.53125 -11.734375 C 5.644531 -11.734375 5.757812 -11.734375 5.875 -11.734375 C 6.476562 -11.734375 6.9375 -11.535156 7.25 -11.140625 C 7.488281 -10.753906 7.609375 -10.316406 7.609375 -9.828125 C 7.609375 -9.628906 7.585938 -9.359375 7.546875 -9.015625 C 7.503906 -8.679688 7.484375 -8.460938 7.484375 -8.359375 Z M 7.484375 -8.359375 "/></g></g></g><g fill="#fae75d" fill-opacity="1"><g transform="translate(759.068633, 205.13185)"><g><path d="M 11.375 -6.40625 C 10.945312 -4.976562 10.226562 -3.847656 9.21875 -3.015625 C 8.332031 -2.253906 7.363281 -1.875 6.3125 -1.875 C 5.34375 -1.875 4.515625 -2.1875 3.828125 -2.8125 C 3.828125 -2.8125 3.804688 -2.84375 3.765625 -2.90625 C 3.734375 -2.976562 3.71875 -3.039062 3.71875 -3.09375 C 3.71875 -3.46875 3.929688 -3.9375 4.359375 -4.5 C 4.765625 -5.03125 5.085938 -5.351562 5.328125 -5.46875 C 5.441406 -5.46875 5.515625 -5.429688 5.546875 -5.359375 C 5.585938 -5.296875 5.609375 -5.140625 5.609375 -4.890625 L 5.609375 -4.65625 C 5.609375 -4.34375 5.660156 -4.1875 5.765625 -4.1875 L 5.875 -4.234375 C 5.957031 -4.410156 6.019531 -4.5625 6.0625 -4.6875 C 6.113281 -4.820312 6.160156 -4.945312 6.203125 -5.0625 C 6.378906 -5.738281 6.46875 -6.253906 6.46875 -6.609375 C 6.46875 -6.878906 6.410156 -7.101562 6.296875 -7.28125 C 6.191406 -7.457031 6.015625 -7.546875 5.765625 -7.546875 C 4.867188 -7.347656 4 -6.859375 3.15625 -6.078125 C 2.1875 -5.203125 1.703125 -4.269531 1.703125 -3.28125 C 1.867188 -2.632812 2.519531 -1.921875 3.65625 -1.140625 C 4.863281 -0.335938 5.984375 0.0625 7.015625 0.0625 C 8.597656 0.0625 9.9375 -0.617188 11.03125 -1.984375 C 12 -3.160156 12.660156 -4.757812 13.015625 -6.78125 C 13.015625 -6.863281 13.023438 -6.941406 13.046875 -7.015625 L 13.046875 -7.8125 C 13.046875 -9.3125 12.554688 -10.585938 11.578125 -11.640625 C 10.503906 -12.753906 9.0625 -13.3125 7.25 -13.3125 C 5.4375 -13.132812 4.0625 -12.703125 3.125 -12.015625 C 2.175781 -11.273438 1.359375 -10.03125 0.671875 -8.28125 C 0.828125 -7.789062 1.09375 -7.445312 1.46875 -7.25 C 1.757812 -7.09375 2.164062 -7.015625 2.6875 -7.015625 C 2.769531 -7.054688 2.867188 -7.144531 2.984375 -7.28125 C 3.097656 -7.414062 3.203125 -7.570312 3.296875 -7.75 C 3.398438 -7.925781 3.476562 -8.109375 3.53125 -8.296875 C 3.59375 -8.492188 3.625 -8.671875 3.625 -8.828125 C 3.582031 -8.753906 3.5 -8.695312 3.375 -8.65625 C 3.25 -8.613281 3.140625 -8.59375 3.046875 -8.59375 C 2.984375 -8.59375 2.929688 -8.613281 2.890625 -8.65625 C 3.046875 -9.613281 3.59375 -10.453125 4.53125 -11.171875 C 5.445312 -11.890625 6.5 -12.25 7.6875 -12.25 L 8.15625 -12.25 C 9.425781 -12 10.351562 -11.503906 10.9375 -10.765625 C 11.445312 -10.117188 11.703125 -9.316406 11.703125 -8.359375 C 11.703125 -8.066406 11.675781 -7.742188 11.625 -7.390625 C 11.570312 -7.046875 11.488281 -6.71875 11.375 -6.40625 Z M 11.375 -6.40625 "/></g></g></g><g fill="#fae75d" fill-opacity="1"><g transform="translate(773.859355, 205.13185)"><g><path d="M 0.234375 -10.171875 L 0.171875 -10.0625 C 0.171875 -9.6875 0.394531 -9.34375 0.84375 -9.03125 C 1.175781 -8.875 1.507812 -8.710938 1.84375 -8.546875 C 2.175781 -8.390625 2.523438 -8.234375 2.890625 -8.078125 C 2.859375 -8.171875 2.832031 -8.25 2.8125 -8.3125 C 2.789062 -8.382812 2.769531 -8.460938 2.75 -8.546875 C 2.65625 -8.816406 2.609375 -9.054688 2.609375 -9.265625 C 2.609375 -9.578125 2.660156 -9.875 2.765625 -10.15625 C 2.867188 -10.445312 3.003906 -10.703125 3.171875 -10.921875 C 3.335938 -11.148438 3.519531 -11.332031 3.71875 -11.46875 C 3.925781 -11.601562 4.128906 -11.671875 4.328125 -11.671875 L 4.734375 -11.640625 L 4.734375 -11.171875 C 4.734375 -10.429688 4.460938 -9.445312 3.921875 -8.21875 C 3.472656 -7.164062 2.867188 -6.003906 2.109375 -4.734375 C 1.503906 -3.660156 0.898438 -2.6875 0.296875 -1.8125 C 0.296875 -1.363281 0.476562 -0.945312 0.84375 -0.5625 C 1.21875 -0.1875 1.664062 0 2.1875 0 C 2.1875 -1.113281 2.976562 -2.242188 4.5625 -3.390625 C 6.082031 -4.441406 7.378906 -4.96875 8.453125 -4.96875 L 8.796875 -4.96875 C 8.765625 -4.832031 8.742188 -4.707031 8.734375 -4.59375 C 8.722656 -4.476562 8.71875 -4.378906 8.71875 -4.296875 C 8.71875 -3.128906 8.984375 -2.203125 9.515625 -1.515625 C 10.054688 -0.835938 10.832031 -0.441406 11.84375 -0.328125 C 11.882812 -0.328125 11.957031 -0.316406 12.0625 -0.296875 C 12.164062 -0.273438 12.238281 -0.265625 12.28125 -0.265625 C 12.632812 -0.265625 12.945312 -0.332031 13.21875 -0.46875 C 13.59375 -0.644531 13.894531 -0.925781 14.125 -1.3125 C 14.257812 -1.664062 14.328125 -2.046875 14.328125 -2.453125 C 14.328125 -3.273438 14.050781 -4.054688 13.5 -4.796875 C 12.957031 -5.535156 12.210938 -6.109375 11.265625 -6.515625 C 11.492188 -7.046875 11.71875 -7.597656 11.9375 -8.171875 C 12.164062 -8.742188 12.398438 -9.332031 12.640625 -9.9375 C 12.753906 -10.25 12.867188 -10.507812 12.984375 -10.71875 C 13.097656 -10.925781 13.195312 -11.097656 13.28125 -11.234375 C 13.4375 -11.234375 13.640625 -11.503906 13.890625 -12.046875 C 14.085938 -12.472656 14.1875 -12.785156 14.1875 -12.984375 L 14.1875 -13.046875 C 13.945312 -13.023438 13.691406 -13.007812 13.421875 -13 C 13.148438 -12.988281 12.859375 -12.960938 12.546875 -12.921875 C 11.960938 -12.867188 11.671875 -12.722656 11.671875 -12.484375 C 11.492188 -12.171875 11.328125 -11.859375 11.171875 -11.546875 C 11.015625 -11.234375 10.859375 -10.914062 10.703125 -10.59375 C 10.453125 -10.101562 10.1875 -9.546875 9.90625 -8.921875 C 9.632812 -8.296875 9.34375 -7.59375 9.03125 -6.8125 C 8.664062 -6.632812 7.984375 -6.363281 6.984375 -6 C 6.671875 -5.894531 6.316406 -5.78125 5.921875 -5.65625 C 5.523438 -5.53125 5.082031 -5.390625 4.59375 -5.234375 C 4.789062 -5.703125 5.09375 -6.375 5.5 -7.25 C 5.988281 -8.382812 6.234375 -9.289062 6.234375 -9.96875 L 6.234375 -10.265625 C 6.128906 -10.984375 5.832031 -11.585938 5.34375 -12.078125 C 4.863281 -12.566406 4.28125 -12.867188 3.59375 -12.984375 C 3.050781 -12.960938 2.390625 -12.679688 1.609375 -12.140625 C 0.753906 -11.535156 0.296875 -10.878906 0.234375 -10.171875 Z M 11.265625 -1.40625 C 10.867188 -1.40625 10.519531 -1.492188 10.21875 -1.671875 C 9.914062 -1.859375 9.765625 -2.109375 9.765625 -2.421875 C 9.765625 -2.734375 9.816406 -3.070312 9.921875 -3.4375 C 10.035156 -3.800781 10.285156 -4.410156 10.671875 -5.265625 C 11.222656 -5.265625 11.757812 -5.039062 12.28125 -4.59375 C 12.8125 -4.144531 13.078125 -3.644531 13.078125 -3.09375 C 13.078125 -2.59375 12.898438 -2.1875 12.546875 -1.875 C 12.191406 -1.5625 11.765625 -1.40625 11.265625 -1.40625 Z M 11.265625 -1.40625 "/></g></g></g><g fill="#fae75d" fill-opacity="1"><g transform="translate(790.226419, 205.13185)"><g><path d="M 12.078125 -0.234375 C 12.253906 -0.859375 12.378906 -1.484375 12.453125 -2.109375 C 12.535156 -2.734375 12.578125 -3.394531 12.578125 -4.09375 C 12.578125 -5.75 12.332031 -7.203125 11.84375 -8.453125 C 11.257812 -9.910156 10.460938 -10.894531 9.453125 -11.40625 C 10.035156 -11.851562 10.664062 -12.445312 11.34375 -13.1875 C 12.03125 -13.945312 12.375 -14.425781 12.375 -14.625 C 12.375 -14.851562 12.160156 -14.976562 11.734375 -15 C 11.359375 -15.019531 11.082031 -15.195312 10.90625 -15.53125 L 10.765625 -15.59375 C 10.679688 -15.59375 10.269531 -15.113281 9.53125 -14.15625 C 8.71875 -13.144531 8.113281 -12.5625 7.71875 -12.40625 C 7.269531 -12.59375 6.890625 -12.726562 6.578125 -12.8125 C 6.265625 -12.90625 5.972656 -12.953125 5.703125 -12.953125 L 4.796875 -12.984375 C 3.785156 -12.984375 2.78125 -12.710938 1.78125 -12.171875 C 0.96875 -11.722656 0.519531 -11.378906 0.4375 -11.140625 C 0.394531 -10.960938 0.375 -10.75 0.375 -10.5 C 0.375 -9.9375 0.53125 -9.523438 0.84375 -9.265625 C 1.375 -9.929688 2.039062 -10.5 2.84375 -10.96875 C 3.769531 -11.476562 4.597656 -11.734375 5.328125 -11.734375 C 5.578125 -11.734375 5.828125 -11.707031 6.078125 -11.65625 C 6.335938 -11.601562 6.5625 -11.519531 6.75 -11.40625 C 6.613281 -11.207031 6.441406 -11.046875 6.234375 -10.921875 C 6.035156 -10.796875 5.867188 -10.734375 5.734375 -10.734375 C 5.671875 -10.734375 5.613281 -10.765625 5.5625 -10.828125 C 5.519531 -10.898438 5.5 -10.957031 5.5 -11 C 5.5 -11.070312 5.535156 -11.160156 5.609375 -11.265625 C 5.648438 -11.316406 5.679688 -11.363281 5.703125 -11.40625 C 5.429688 -11.40625 5.164062 -11.269531 4.90625 -11 C 4.65625 -10.726562 4.53125 -10.472656 4.53125 -10.234375 L 4.59375 -10.171875 C 4.59375 -9.828125 4.796875 -9.578125 5.203125 -9.421875 C 5.492188 -9.316406 5.828125 -9.265625 6.203125 -9.265625 C 6.472656 -9.347656 6.804688 -9.53125 7.203125 -9.8125 C 7.609375 -10.09375 7.9375 -10.351562 8.1875 -10.59375 C 9.03125 -10.3125 9.675781 -9.65625 10.125 -8.625 C 10.488281 -7.8125 10.671875 -6.769531 10.671875 -5.5 C 10.671875 -4.9375 10.628906 -4.34375 10.546875 -3.71875 C 10.472656 -3.09375 10.378906 -2.546875 10.265625 -2.078125 C 10.066406 -2.097656 9.921875 -2.75 9.828125 -4.03125 C 9.765625 -5.34375 9.617188 -6.289062 9.390625 -6.875 C 8.992188 -7.96875 8.3125 -8.515625 7.34375 -8.515625 C 6.113281 -8.515625 4.875 -7.859375 3.625 -6.546875 C 2.632812 -5.492188 1.785156 -4.140625 1.078125 -2.484375 C 0.941406 -2.410156 0.765625 -2.3125 0.546875 -2.1875 C 0.335938 -2.070312 0.234375 -1.945312 0.234375 -1.8125 L 0.296875 -1.640625 C 0.410156 -1.484375 0.566406 -1.226562 0.765625 -0.875 C 1.128906 -0.25 1.429688 0.0625 1.671875 0.0625 L 1.84375 0.0625 C 2.195312 -0.195312 2.539062 -0.460938 2.875 -0.734375 C 3.21875 -1.003906 3.566406 -1.285156 3.921875 -1.578125 C 4.910156 -2.421875 5.40625 -3.09375 5.40625 -3.59375 L 5.40625 -3.71875 C 5.21875 -3.539062 5.066406 -3.40625 4.953125 -3.3125 C 4.847656 -3.226562 4.773438 -3.164062 4.734375 -3.125 C 4.640625 -3.070312 4.546875 -3.023438 4.453125 -2.984375 C 4.367188 -2.941406 4.269531 -2.910156 4.15625 -2.890625 C 4.070312 -2.972656 4.03125 -3.117188 4.03125 -3.328125 C 4.03125 -4.085938 4.363281 -5.003906 5.03125 -6.078125 C 5.769531 -7.234375 6.507812 -7.8125 7.25 -7.8125 C 7.851562 -7.570312 8.253906 -7.023438 8.453125 -6.171875 C 8.609375 -5.640625 8.6875 -4.820312 8.6875 -3.71875 L 8.6875 -3.1875 L 8.65625 -2.65625 C 8.65625 -2.050781 8.753906 -1.546875 8.953125 -1.140625 C 9.179688 -0.628906 9.628906 -0.191406 10.296875 0.171875 C 10.429688 0.210938 10.554688 0.234375 10.671875 0.234375 C 10.960938 0.234375 11.238281 0.191406 11.5 0.109375 C 11.769531 0.0351562 11.960938 -0.078125 12.078125 -0.234375 Z M 12.078125 -0.234375 "/></g></g></g><g fill="#fae75d" fill-opacity="1"><g transform="translate(805.017141, 205.13185)"><g><path d="M -2.921875 -17.40625 L -2.6875 -17.375 C -1.945312 -17.375 -1.375 -17.441406 -0.96875 -17.578125 C -0.320312 -17.828125 0.144531 -18.238281 0.4375 -18.8125 C 0.5 -19.019531 0.53125 -19.234375 0.53125 -19.453125 C 0.53125 -19.878906 0.398438 -20.382812 0.140625 -20.96875 L -0.5625 -22.28125 L -0.703125 -22.28125 C -0.898438 -22.28125 -1.132812 -22.109375 -1.40625 -21.765625 C -1.445312 -21.722656 -1.515625 -21.617188 -1.609375 -21.453125 C -1.703125 -21.285156 -1.828125 -21.078125 -1.984375 -20.828125 L -1.953125 -20.765625 C -1.953125 -20.628906 -1.835938 -20.5625 -1.609375 -20.5625 C -1.492188 -20.5625 -1.347656 -20.582031 -1.171875 -20.625 C -0.972656 -20.5 -0.796875 -20.316406 -0.640625 -20.078125 C -0.484375 -19.835938 -0.40625 -19.628906 -0.40625 -19.453125 C -0.445312 -19.273438 -0.476562 -19.15625 -0.5 -19.09375 C -0.632812 -18.863281 -0.945312 -18.75 -1.4375 -18.75 C -1.957031 -18.75 -2.695312 -18.847656 -3.65625 -19.046875 C -3.96875 -19.117188 -4.367188 -19.222656 -4.859375 -19.359375 L -5.234375 -19.359375 C -5.921875 -19.359375 -6.4375 -19.144531 -6.78125 -18.71875 C -7.019531 -18.34375 -7.140625 -17.894531 -7.140625 -17.375 C -7.140625 -17.238281 -7.132812 -17.078125 -7.125 -16.890625 C -7.113281 -16.703125 -7.097656 -16.570312 -7.078125 -16.5 C -7.015625 -16.050781 -6.722656 -15.6875 -6.203125 -15.40625 C -5.691406 -15.132812 -5.144531 -15 -4.5625 -15 C -4.34375 -15 -4.128906 -15.03125 -3.921875 -15.09375 C -3.492188 -15.1875 -3.257812 -15.578125 -3.21875 -16.265625 C -3.195312 -16.960938 -3.097656 -17.34375 -2.921875 -17.40625 Z M -5.203125 -17.75 C -4.867188 -17.632812 -4.640625 -17.519531 -4.515625 -17.40625 C -4.390625 -17.300781 -4.328125 -17.132812 -4.328125 -16.90625 L -4.328125 -16.609375 C -4.460938 -16.472656 -4.640625 -16.40625 -4.859375 -16.40625 C -5.148438 -16.40625 -5.445312 -16.484375 -5.75 -16.640625 C -6.050781 -16.796875 -6.203125 -16.972656 -6.203125 -17.171875 L -6.203125 -17.34375 C -6.203125 -17.5 -6.09375 -17.601562 -5.875 -17.65625 C -5.664062 -17.71875 -5.441406 -17.75 -5.203125 -17.75 Z M -5.203125 -17.75 "/></g></g></g><path fill="#f9f7f7" d="M 344.507812 722.152344 C 335.53125 722.152344 326.84375 723.355469 318.550781 725.582031 C 319.785156 718.328125 320.457031 710.859375 320.457031 703.253906 C 320.457031 629.21875 260.425781 569.199219 186.40625 569.199219 C 123.070312 569.199219 70.019531 613.140625 56.015625 672.179688 C 49.722656 670.078125 43.015625 668.871094 36.019531 668.871094 C 1.378906 668.871094 -26.699219 696.960938 -26.699219 731.601562 C -26.699219 732.042969 -26.648438 732.46875 -26.625 732.894531 C -33.304688 731.492188 -40.214844 730.746094 -47.328125 730.746094 C -102.371094 730.746094 -146.988281 775.371094 -146.988281 830.414062 C -146.988281 885.460938 -102.371094 930.101562 -47.328125 930.101562 C -17.714844 930.101562 8.863281 917.175781 27.121094 896.679688 C 38.261719 923.363281 64.59375 942.125 95.320312 942.125 C 120.664062 942.125 143.003906 929.351562 156.324219 909.90625 C 169.628906 929.351562 191.984375 942.125 217.34375 942.125 C 246.46875 942.125 271.597656 925.222656 283.636719 900.734375 C 300.460938 913.730469 321.585938 921.503906 344.507812 921.503906 C 399.566406 921.503906 444.175781 876.882812 444.175781 821.835938 C 444.175781 766.773438 399.566406 722.152344 344.507812 722.152344 " fill-opacity="1" fill-rule="nonzero"/><path fill="#f9f7f7" d="M 1508.828125 752.1875 C 1499.851562 752.1875 1491.164062 753.390625 1482.875 755.617188 C 1484.109375 748.363281 1484.78125 740.894531 1484.78125 733.289062 C 1484.78125 659.253906 1424.75 599.234375 1350.730469 599.234375 C 1287.394531 599.234375 1234.34375 643.175781 1220.335938 702.214844 C 1214.042969 700.113281 1207.339844 698.910156 1200.34375 698.910156 C 1165.703125 698.910156 1137.621094 726.996094 1137.621094 761.636719 C 1137.621094 762.078125 1137.675781 762.503906 1137.699219 762.929688 C 1131.019531 761.53125 1124.109375 760.78125 1116.996094 760.78125 C 1061.953125 760.78125 1017.335938 805.40625 1017.335938 860.453125 C 1017.335938 915.5 1061.953125 960.136719 1116.996094 960.136719 C 1146.605469 960.136719 1173.183594 947.210938 1191.441406 926.714844 C 1202.582031 953.398438 1228.917969 972.160156 1259.640625 972.160156 C 1284.984375 972.160156 1307.328125 959.390625 1320.648438 939.941406 C 1333.949219 959.390625 1356.308594 972.160156 1381.667969 972.160156 C 1410.789062 972.160156 1435.921875 955.257812 1447.960938 930.769531 C 1464.785156 943.769531 1485.90625 951.539062 1508.828125 951.539062 C 1563.890625 951.539062 1608.496094 906.917969 1608.496094 851.871094 C 1608.496094 796.808594 1563.890625 752.1875 1508.828125 752.1875 " fill-opacity="1" fill-rule="nonzero"/><g mask="url(#5addce0cf5)"><g transform="matrix(1, 0, 0, 1, 569, 605)"><g clip-path="url(#0dc9bc95f0)"><g clip-path="url(#62a9952050)"><path fill="#f9f7f7" d="M 0.195312 275.28125 C 0.195312 242.121094 15.417969 212.472656 39.355469 192.707031 C 38.441406 185.558594 37.921875 178.144531 37.921875 170.734375 C 37.921875 76.585938 114.289062 0.125 208.605469 0.125 C 245.164062 0.125 279.117188 11.699219 306.828125 31.203125 C 316.324219 15.339844 333.625 4.675781 353.402344 4.675781 C 381.632812 4.675781 404.789062 26.261719 407.257812 53.699219 C 418.316406 49.539062 430.417969 47.328125 442.90625 47.328125 C 499.757812 47.328125 545.9375 93.363281 545.9375 150.316406 C 545.9375 156.429688 545.417969 162.539062 544.378906 168.390625 C 602.921875 168.78125 650.664062 216.765625 650.664062 275.28125 C 650.664062 323.265625 618.53125 364.226562 574.691406 377.621094 C 574.949219 379.570312 575.082031 381.648438 575.082031 383.601562 C 575.082031 412.339844 548.28125 435.613281 515.367188 435.613281 C 493.511719 435.613281 474.519531 425.34375 463.980469 410.128906 C 446.417969 419.878906 426.253906 425.601562 404.65625 425.601562 C 367.839844 425.601562 334.925781 409.476562 312.421875 383.859375 C 288.09375 415.460938 249.976562 435.875 207.046875 435.875 C 175.5625 435.875 146.679688 424.820312 123.914062 406.617188 C 120.011719 421.179688 103.101562 429.761719 85.539062 425.863281 C 67.585938 421.832031 55.746094 406.355469 59.128906 391.144531 C 60.558594 384.640625 64.59375 379.308594 70.054688 375.667969 C 29.335938 360.324219 0.195312 321.054688 0.195312 275.28125 Z M 0.195312 275.28125 " fill-opacity="1" fill-rule="nonzero"/></g></g></g></g><path fill="#f8a3a7" d="M 553.476562 369.339844 C 618.371094 314.148438 675.792969 347.953125 675.792969 347.953125 C 687.726562 333.535156 726.511719 325.582031 734.46875 365.359375 C 734.785156 366.949219 735.136719 368.507812 735.488281 370.054688 L 698.925781 386.5 C 698.925781 386.5 703.773438 414.097656 721.664062 420.804688 C 721.664062 420.804688 731.9375 411.140625 744.738281 398.675781 C 753.484375 419.613281 763.316406 432.492188 763.316406 432.492188 C 669.835938 452.882812 668.339844 373.316406 668.339844 373.316406 C 670.199219 405.257812 629.554688 421.917969 618.371094 424.902344 C 607.183594 427.890625 557.210938 448.402344 571.75 506.953125 C 586.304688 565.507812 656.164062 551.578125 656.164062 551.578125 C 656.164062 592.601562 582.160156 586.78125 559.4375 570.71875 C 509.390625 535.347656 488.585938 424.539062 553.476562 369.339844 " fill-opacity="1" fill-rule="nonzero"/><path stroke-linecap="round" transform="matrix(-0.152399, 0, 0, -0.152399, 1040.041826, 864.772128)" fill="none" stroke-linejoin="round" d="M 3192.709348 3250.892338 C 2766.889027 3613.094646 2390.102251 3391.200556 2390.102251 3391.200556 C 2311.797244 3485.807359 2057.299563 3537.993609 2005.087681 3277.011095 C 2003.011509 3266.604603 2000.704651 3256.300638 1998.397794 3246.201727 L 2238.311006 3138.292045 C 2238.311006 3138.292045 2206.502 2957.203706 2089.108569 2913.193986 C 2089.108569 2913.193986 2021.697058 2976.606944 1937.701801 3058.397869 C 1880.312305 2921.01167 1815.797182 2836.503779 1815.797182 2836.503779 C 2429.190675 2702.706026 2439.007636 3224.799213 2439.007636 3224.799213 C 2426.806922 3015.208364 2693.505317 2905.888936 2766.889027 2886.306276 C 2840.298369 2866.697985 3168.205391 2732.105647 3072.804005 2347.911294 C 2977.300091 1963.691309 2518.901812 2055.094142 2518.901812 2055.094142 C 2518.901812 1785.909467 3004.495382 1824.10078 3153.595292 1929.49855 C 3481.989318 2161.594078 3618.504037 2888.690029 3192.709348 3250.892338 Z M 3192.709348 3250.892338 " stroke="#594e82" stroke-width="40" stroke-opacity="1" stroke-miterlimit="10"/><path fill="#f8a3a7" d="M 811.855469 536.125 C 803.09375 527.605469 793.109375 523.765625 782.59375 522.804688 C 786.984375 512.242188 802.542969 482.785156 837.414062 490.175781 C 879.671875 499.121094 899.0625 545.863281 880.160156 594.585938 C 861.277344 643.320312 861.339844 684.089844 887.414062 688.066406 C 913.480469 692.042969 913.480469 671.667969 913.480469 671.667969 C 913.480469 671.667969 930.886719 694.542969 905.527344 708.960938 C 880.160156 723.375 837.550781 700.5 832.75 671.164062 C 827.964844 641.828125 828.453125 626.421875 835.414062 607.507812 C 842.105469 589.339844 842.824219 527.878906 811.855469 536.125 " fill-opacity="1" fill-rule="nonzero"/><path stroke-linecap="round" transform="matrix(-0.152399, 0, 0, -0.152399, 1040.041826, 864.772128)" fill="none" stroke-linejoin="round" d="M 1497.297013 2156.493359 C 1554.789036 2212.396213 1620.303798 2237.592227 1689.304478 2243.897638 C 1660.494387 2313.2059 1558.403113 2506.494953 1329.58845 2457.999675 C 1052.304141 2399.30296 925.068116 2092.593397 1049.100171 1772.888536 C 1173.004068 1453.10678 1172.59396 1185.588168 1001.502005 1159.495043 C 830.461314 1133.401918 830.461314 1267.097145 830.461314 1267.097145 C 830.461314 1267.097145 716.246221 1116.997596 882.647564 1022.390794 C 1049.100171 927.809624 1328.691338 1077.909172 1360.192763 1270.403641 C 1391.591662 1462.898109 1388.387692 1563.989745 1342.711908 1688.098696 C 1298.804714 1807.311981 1294.088471 2210.601991 1497.297013 2156.493359 Z M 1497.297013 2156.493359 " stroke="#594e82" stroke-width="40" stroke-opacity="1" stroke-miterlimit="10"/><path stroke-linecap="round" transform="matrix(-0.152399, 0, 0, -0.152399, 1040.041826, 864.772128)" fill-opacity="1" fill="#9fc7aa" fill-rule="nonzero" stroke-linejoin="round" d="M 2769.400939 3304.693388 C 2769.400939 3304.693388 2803.593698 3446.590776 2747.306367 3515.20698 C 2691.095932 3583.695025 2642.088019 3635.112323 2664.105695 3703.600368 C 2664.105695 3703.600368 2319.102293 3569.00803 2463.511593 3304.693388 " stroke="#594e82" stroke-width="40" stroke-opacity="1" stroke-miterlimit="10"/><path fill="#fcda88" d="M 698.925781 386.5 C 698.925781 386.5 703.773438 414.097656 721.664062 420.804688 C 721.664062 420.804688 811.167969 336.523438 791.039062 345.097656 L 698.925781 386.5 " fill-opacity="1" fill-rule="nonzero"/><path stroke-linecap="round" transform="matrix(-0.152399, 0, 0, -0.152399, 1040.041826, 864.772128)" fill="none" stroke-linejoin="round" d="M 2238.311006 3138.292045 C 2238.311006 3138.292045 2206.502 2957.203706 2089.108569 2913.193986 C 2089.108569 2913.193986 1501.808202 3466.199067 1633.888627 3409.988632 Z M 2238.311006 3138.292045 " stroke="#594e82" stroke-width="40" stroke-opacity="1" stroke-miterlimit="10"/><path stroke-linecap="round" transform="matrix(-0.152399, 0, 0, -0.152399, 1040.041826, 864.772128)" fill="none" stroke-linejoin="round" d="M 2085.212543 3207.190198 C 2085.212543 3207.190198 2102.898453 3051.810508 2042.612568 2966.995036 " stroke="#594e82" stroke-width="40" stroke-opacity="1" stroke-miterlimit="10"/><path stroke-linecap="round" transform="matrix(-0.152399, 0, 0, -0.152399, 1040.041826, 864.772128)" fill="none" stroke-linejoin="round" d="M 1970.792395 3258.607496 C 1972.894199 3214.802829 1971.997088 3123.194942 1936.292055 3059.192453 " stroke="#594e82" stroke-width="40" stroke-opacity="1" stroke-miterlimit="10"/><path stroke-linecap="round" transform="matrix(-0.152399, 0, 0, -0.152399, 1040.041826, 864.772128)" fill="none" stroke-linejoin="round" d="M 1855.295714 3310.409269 C 1855.987771 3269.911099 1852.911961 3214.700302 1832.509085 3162.103944 " stroke="#594e82" stroke-width="40" stroke-opacity="1" stroke-miterlimit="10"/><path stroke-linecap="round" transform="matrix(-0.152399, 0, 0, -0.152399, 1040.041826, 864.772128)" fill="none" stroke-linejoin="round" d="M 1738.799394 3362.800574 C 1737.697229 3332.298787 1733.903729 3307.102773 1724.189295 3272.910014 " stroke="#594e82" stroke-width="40" stroke-opacity="1" stroke-miterlimit="10"/><path fill="#f9b275" d="M 621.402344 623.296875 C 624.511719 628.980469 627.742188 635.136719 631.050781 641.828125 C 648.453125 677.136719 650.449219 740.78125 649.445312 759.175781 C 649.351562 760.773438 649.398438 762.269531 649.519531 763.65625 C 626.15625 766.902344 621.921875 765.835938 625.820312 713.394531 C 629.921875 658.410156 621.402344 623.296875 621.402344 623.296875 " fill-opacity="1" fill-rule="nonzero"/><path stroke-linecap="round" transform="matrix(-0.152399, 0, 0, -0.152399, 1040.041826, 864.772128)" fill="none" stroke-linejoin="round" d="M 2746.998786 1584.495148 C 2726.59591 1547.200947 2705.39845 1506.805303 2683.688355 1462.898109 C 2569.498893 1231.21269 2556.401067 813.59453 2562.988428 692.868971 C 2563.60359 682.359952 2563.296009 672.619886 2562.501425 663.520613 C 2715.804942 642.194994 2743.589763 649.218095 2718.009273 993.298754 C 2691.095932 1354.091316 2746.998786 1584.495148 2746.998786 1584.495148 Z M 2746.998786 1584.495148 " stroke="#594e82" stroke-width="40" stroke-opacity="1" stroke-miterlimit="10"/><path fill="#f9b275" d="M 708.789062 625.414062 C 710.355469 624.835938 712.109375 624.5625 714.089844 624.652344 C 738.949219 625.886719 745.910156 739.789062 744.921875 762.664062 C 744.890625 763.183594 744.890625 763.6875 744.890625 764.1875 C 725.125 766.582031 721.605469 762.605469 725.277344 713.394531 C 728.78125 666.546875 713.421875 634.023438 708.789062 625.414062 " fill-opacity="1" fill-rule="nonzero"/><path stroke-linecap="round" transform="matrix(-0.152399, 0, 0, -0.152399, 1040.041826, 864.772128)" fill="none" stroke-linejoin="round" d="M 2173.590829 1570.602738 C 2163.312496 1574.396237 2151.803838 1576.19046 2138.808539 1575.60093 C 1975.68806 1567.501295 1930.012275 820.130627 1936.497109 670.005447 C 1936.702163 666.570792 1936.702163 663.289928 1936.702163 660.009063 C 2066.398836 644.348062 2089.493046 670.364291 2065.399197 993.298754 C 2042.407514 1300.700373 2143.191569 1514.110353 2173.590829 1570.602738 Z M 2173.590829 1570.602738 " stroke="#594e82" stroke-width="40" stroke-opacity="1" stroke-miterlimit="10"/><path fill="#9fc7aa" d="M 598.921875 582.453125 C 626.476562 584.753906 656.164062 577.5625 656.164062 551.578125 C 656.164062 551.578125 586.304688 565.507812 571.75 506.953125 C 557.210938 448.402344 607.183594 427.890625 618.371094 424.902344 C 629.554688 421.917969 670.199219 405.257812 668.339844 373.316406 C 668.339844 373.316406 669.40625 429.871094 725.78125 435.386719 C 731.234375 443.085938 744.570312 463.824219 740.683594 477.863281 C 735.839844 495.386719 713.085938 533.808594 681.765625 514.789062 C 650.449219 495.769531 649.519531 474.507812 638.042969 493.164062 C 626.570312 511.800781 663.128906 545.359375 694.445312 543.117188 C 725.78125 540.894531 781.34375 500.234375 815.285156 539.765625 C 849.207031 579.296875 824.976562 613.480469 815.285156 639.847656 C 805.574219 666.195312 794.632812 709.949219 793.15625 736.800781 C 791.660156 763.65625 801.597656 773.605469 781.710938 778.074219 C 761.824219 782.554688 743.929688 785.539062 744.921875 762.664062 C 745.910156 739.789062 738.949219 625.886719 714.089844 624.652344 C 689.21875 623.433594 697.675781 680.125 700.664062 699.511719 C 703.652344 718.894531 709.121094 760.179688 709.121094 765.652344 C 709.121094 771.109375 709.609375 781.195312 695.695312 781.195312 L 662.871094 781.195312 C 662.871094 781.195312 648.453125 777.570312 649.445312 759.175781 C 650.449219 740.78125 648.453125 677.136719 631.050781 641.828125 C 616.785156 612.902344 603.527344 593.65625 598.921875 582.453125 " fill-opacity="1" fill-rule="nonzero"/><path stroke-linecap="round" transform="matrix(-0.152399, 0, 0, -0.152399, 1040.041826, 864.772128)" fill="none" stroke-linejoin="round" d="M 2894.509528 1852.500763 C 2713.703138 1837.40366 2518.901812 1884.591718 2518.901812 2055.094142 C 2518.901812 2055.094142 2977.300091 1963.691309 3072.804005 2347.911294 C 3168.205391 2732.105647 2840.298369 2866.697985 2766.889027 2886.306276 C 2693.505317 2905.888936 2426.806922 3015.208364 2439.007636 3224.799213 C 2439.007636 3224.799213 2432.010167 2853.702686 2062.092701 2817.51065 C 2026.310773 2766.990464 1938.803967 2630.911484 1964.307562 2538.790962 C 1996.090936 2423.806916 2145.3959 2171.692989 2350.911299 2296.493997 C 2556.401067 2421.295004 2562.501425 2560.808639 2637.807516 2438.391384 C 2713.087976 2316.102288 2473.200395 2095.899894 2267.710628 2110.61252 C 2062.092701 2125.196988 1697.506639 2391.99791 1474.792333 2132.604565 C 1252.206186 1873.211219 1411.199953 1648.907745 1474.792333 1475.893408 C 1538.487241 1303.007231 1610.307414 1015.90596 1619.996217 839.687655 C 1629.787547 663.46935 1564.605998 598.262169 1695.097255 568.888179 C 1825.588512 539.488558 1943.007574 519.93153 1936.497109 670.005447 C 1930.012275 820.130627 1975.68806 1567.501295 2138.808539 1575.60093 C 2302.005914 1583.598037 2246.487536 1211.604398 2226.904876 1084.394006 C 2207.296585 957.157981 2171.41213 686.332874 2171.41213 650.448419 C 2171.41213 614.589596 2168.208161 548.408408 2259.508466 548.408408 L 2474.892091 548.408408 C 2474.892091 548.408408 2569.498893 572.169044 2562.988428 692.868971 C 2556.401067 813.59453 2569.498893 1231.21269 2683.688355 1462.898109 C 2777.295519 1652.701244 2864.28969 1778.988894 2894.509528 1852.500763 Z M 2894.509528 1852.500763 " stroke="#594e82" stroke-width="40" stroke-opacity="1" stroke-miterlimit="10"/><path stroke-linecap="round" transform="matrix(-0.152399, 0, 0, -0.152399, 1040.041826, 864.772128)" fill="none" stroke-linejoin="round" d="M 2442.109078 2822.508842 C 2463.409066 2771.501652 2439.289585 2713.009991 2388.410555 2691.710004 C 2337.505892 2670.512543 2278.911704 2694.503865 2257.688612 2745.511054 " stroke="#594e82" stroke-width="40" stroke-opacity="1" stroke-miterlimit="10"/><path stroke-linecap="round" transform="matrix(-0.152399, 0, 0, -0.152399, 1040.041826, 864.772128)" fill="none" stroke-linejoin="round" d="M 2428.39609 2666.001355 L 2400.611269 2697.887256 " stroke="#594e82" stroke-width="40" stroke-opacity="1" stroke-miterlimit="10"/><path stroke-linecap="round" transform="matrix(-0.152399, 0, 0, -0.152399, 1040.041826, 864.772128)" fill="none" stroke-linejoin="round" d="M 2487.707968 2724.69807 L 2449.901131 2753.20058 " stroke="#594e82" stroke-width="40" stroke-opacity="1" stroke-miterlimit="10"/><path stroke-linecap="round" transform="matrix(-0.152399, 0, 0, -0.152399, 1040.041826, 864.772128)" fill="none" stroke-linejoin="round" d="M 2316.590382 2647.290175 L 2324.997597 2687.608923 " stroke="#594e82" stroke-width="40" stroke-opacity="1" stroke-miterlimit="10"/><path stroke-linecap="round" transform="matrix(-0.152399, 0, 0, -0.152399, 1040.041826, 864.772128)" fill="none" stroke-linejoin="round" d="M 2174.692994 2365.007674 C 2174.692994 2365.007674 2181.305987 2395.611987 2225.110653 2388.306938 " stroke="#594e82" stroke-width="40" stroke-opacity="1" stroke-miterlimit="10"/></svg>