<svg xmlns="http://www.w3.org/2000/svg" xmlns:xlink="http://www.w3.org/1999/xlink" width="1920" zoomAndPan="magnify" viewBox="0 0 1440 959.999988" height="1280" preserveAspectRatio="xMidYMid meet" version="1.0"><defs><clipPath id="eff460f086"><path d="M 0 0 L 274 0 L 274 444 L 0 444 Z M 0 0 " clip-rule="nonzero"/></clipPath><clipPath id="272d00784b"><path d="M -315.722656 245.472656 L 61.738281 -189.613281 L 346.699219 57.601562 L -30.761719 492.6875 Z M -315.722656 245.472656 " clip-rule="nonzero"/></clipPath><clipPath id="b52828a50d"><path d="M -315.722656 245.472656 L 61.738281 -189.613281 L 346.699219 57.601562 L -30.761719 492.6875 Z M -315.722656 245.472656 " clip-rule="nonzero"/></clipPath><clipPath id="62f18d9e9f"><path d="M 432 773.347656 L 1007 773.347656 L 1007 960 L 432 960 Z M 432 773.347656 " clip-rule="nonzero"/></clipPath></defs><rect x="-144" width="1728" fill="#ffffff" y="-95.999999" height="1151.999986" fill-opacity="1"/><rect x="-144" width="1728" fill="#ffffff" y="-95.999999" height="1151.999986" fill-opacity="1"/><rect x="-144" width="1728" fill="#90d2c0" y="-95.999999" height="1151.999986" fill-opacity="1"/><path fill="#4a96a7" d="M 1072.453125 -19.484375 C 1072.453125 -19.484375 1208.128906 -17.339844 1259.171875 -19.484375 C 1310.214844 -21.628906 1416.964844 -21.9375 1430.894531 -18.488281 C 1444.820312 -15.042969 1451.785156 -7.617188 1450.636719 9.917969 C 1449.488281 27.453125 1448.570312 122.320312 1450.789062 170.253906 C 1453.007812 218.1875 1458.441406 323.929688 1458.597656 338.09375 C 1458.75 352.261719 1456.453125 362.0625 1441.378906 360.988281 C 1426.300781 359.917969 1352.074219 350.804688 1352.074219 350.804688 C 1352.074219 350.804688 1342.8125 324.773438 1335.46875 270.714844 C 1326.589844 205.554688 1318.402344 166.960938 1291.695312 149.503906 C 1264.988281 132.046875 1173.464844 71.097656 1066.789062 71.097656 C 1066.789062 71.097656 1060.972656 52.644531 1062.121094 26.457031 C 1063.269531 0.269531 1059.75 -14.050781 1072.453125 -19.484375 Z M 1072.453125 -19.484375 " fill-opacity="1" fill-rule="nonzero"/><path fill="#4a96a7" d="M -6.382812 998.460938 C -6.382812 998.460938 -16.207031 858.304688 -13.507812 825.402344 C -10.804688 792.5 -20.632812 665.53125 -20.632812 665.53125 C -20.632812 665.53125 -22.28125 627.160156 -20.632812 623.335938 C -18.980469 619.515625 -1.957031 616.066406 37.417969 627.910156 C 76.792969 639.75 88.417969 684.644531 91.117188 691.765625 C 93.820312 698.886719 111.367188 788.675781 112.492188 818.804688 C 113.617188 848.933594 117.96875 959.5625 115.195312 979.273438 C 115.195312 979.273438 99.820312 985.792969 56.019531 992.914062 C 12.21875 1000.035156 -6.382812 998.460938 -6.382812 998.460938 Z M -6.382812 998.460938 " fill-opacity="1" fill-rule="nonzero"/><g clip-path="url(#eff460f086)"><g clip-path="url(#272d00784b)"><g clip-path="url(#b52828a50d)"><path fill="#4aa78d" d="M 53.738281 375.78125 C 13.40625 441.742188 -56.402344 470.441406 -98.9375 409.605469 C -141.472656 348.769531 -32.203125 222.65625 -25.710938 144.09375 C -19.21875 65.53125 -10.445312 -106.375 118.515625 -67.425781 C 247.476562 -28.480469 315.613281 75.546875 244.613281 159.820312 C 173.617188 244.089844 53.738281 375.78125 53.738281 375.78125 Z M 53.738281 375.78125 " fill-opacity="1" fill-rule="nonzero"/></g></g></g><g clip-path="url(#62f18d9e9f)"><path fill="#afe9d9" d="M 437.667969 794.203125 L 437.667969 826.574219 L 1002.449219 810.445312 L 1002.449219 773.347656 Z M 437.667969 874.734375 L 437.667969 898.238281 C 456.230469 900.542969 954.941406 876.578125 979.847656 874.734375 C 1004.753906 872.890625 1001.296875 854.339844 979.847656 854.339844 C 958.402344 854.339844 437.667969 874.734375 437.667969 874.734375 Z M 432.363281 951.234375 L 443.894531 973.238281 C 443.894531 973.238281 655.371094 960.796875 732.972656 951.234375 C 810.574219 941.671875 931.074219 937.871094 960.707031 933.03125 C 990.339844 928.191406 997.144531 926.347656 997.144531 926.347656 L 990.339844 905.265625 C 990.339844 905.265625 707.949219 933.953125 618.933594 939.253906 C 529.914062 944.550781 432.363281 951.234375 432.363281 951.234375 Z M 432.363281 1029.691406 L 437.667969 1048.816406 C 437.667969 1048.816406 707.144531 1050.777344 765.488281 1048.816406 C 823.835938 1046.859375 1002.449219 1039.714844 1002.449219 1039.714844 C 1002.449219 1039.714844 1005.792969 1034.53125 1006.714844 1024.96875 C 1007.636719 1015.40625 1002.449219 1014.484375 1002.449219 1014.484375 C 1002.449219 1014.484375 528.066406 1026.8125 492.667969 1026.8125 C 472.488281 1026.695312 452.425781 1027.734375 432.363281 1029.691406 Z M 445.738281 1104.234375 C 445.738281 1104.234375 437.089844 1117.597656 493.589844 1113.796875 C 550.09375 1109.996094 997.144531 1087.988281 997.144531 1087.988281 L 1002.332031 1072.667969 Z M 445.738281 1104.234375 " fill-opacity="1" fill-rule="nonzero"/></g><path fill="#afe9d9" d="M 1002.332031 -130.523438 L 1002.332031 -98.148438 L 437.550781 -114.277344 L 437.550781 -151.375 Z M 1002.332031 -49.988281 L 1002.332031 -26.484375 C 983.769531 -24.183594 485.058594 -48.144531 460.152344 -49.988281 C 435.246094 -51.832031 438.703125 -70.382812 460.152344 -70.382812 C 481.597656 -70.382812 1002.332031 -49.988281 1002.332031 -49.988281 Z M 1007.636719 26.511719 L 996.105469 48.515625 C 996.105469 48.515625 784.628906 36.074219 707.027344 26.511719 C 629.425781 16.949219 508.925781 13.144531 479.292969 8.308594 C 449.660156 3.46875 442.855469 1.625 442.855469 1.625 L 449.660156 -19.457031 C 449.660156 -19.457031 732.050781 9.230469 821.066406 14.527344 C 910.085938 19.828125 1007.636719 26.511719 1007.636719 26.511719 Z M 1007.636719 104.96875 L 1002.332031 124.09375 C 1002.332031 124.09375 732.855469 126.054688 674.511719 124.09375 C 616.164062 122.136719 437.550781 114.992188 437.550781 114.992188 C 437.550781 114.992188 434.207031 109.808594 433.285156 100.246094 C 432.363281 90.683594 437.550781 89.761719 437.550781 89.761719 C 437.550781 89.761719 911.929688 102.089844 947.332031 102.089844 C 967.511719 101.972656 987.574219 103.011719 1007.636719 104.96875 Z M 994.261719 179.511719 C 994.261719 179.511719 1002.910156 192.875 946.410156 189.074219 C 889.90625 185.269531 442.855469 163.265625 442.855469 163.265625 L 437.667969 147.941406 Z M 994.261719 179.511719 " fill-opacity="1" fill-rule="nonzero"/><path fill="#4aa78d" d="M 1512.152344 848.941406 C 1474.484375 808.570312 1404.523438 773.578125 1295.523438 774.945312 C 1186.523438 776.3125 1132.023438 811.210938 1109.617188 835.648438 C 1087.210938 860.085938 1067.640625 912.476562 1063.53125 955.683594 C 1059.421875 998.886719 1073.707031 1021.664062 1073.707031 1021.664062 C 1073.707031 1021.664062 1146.699219 1025.28125 1256.09375 1021.664062 C 1365.484375 1018.046875 1551.585938 988.917969 1551.585938 988.917969 C 1551.585938 988.917969 1558.921875 899.085938 1512.152344 848.941406 Z M 1512.152344 848.941406 " fill-opacity="1" fill-rule="nonzero"/><path fill="#afe9d9" d="M 213.457031 759.027344 C 213.457031 759.027344 176.464844 754.917969 123.84375 771.066406 C 45.316406 795.074219 -8.257812 868.113281 -25.871094 890.285156 C -43.484375 912.453125 -76.660156 1001.203125 -25.871094 1068.667969 C 24.914062 1136.128906 96.101562 1138.917969 174.632812 1101.921875 C 253.160156 1064.921875 284.570312 980.871094 298.441406 889.328125 C 312.3125 797.789062 254.113281 761.820312 213.457031 759.027344 Z M 293.304688 890.722656 C 279.875 979.84375 249.34375 1061.691406 173.164062 1097.734375 C 96.984375 1133.78125 27.851562 1130.988281 -21.46875 1065.289062 C -70.789062 999.589844 -38.496094 913.261719 -21.46875 891.605469 C -4.441406 869.949219 47.59375 798.964844 123.84375 775.546875 C 174.925781 759.910156 210.8125 763.875 210.8125 763.875 C 250.222656 766.589844 306.734375 801.679688 293.304688 890.722656 Z M 293.304688 890.722656 " fill-opacity="1" fill-rule="nonzero"/><path fill="#afe9d9" d="M 1421.003906 -264.566406 C 1421.003906 -264.566406 1384.011719 -268.679688 1331.390625 -252.527344 C 1252.863281 -228.523438 1199.289062 -155.484375 1181.675781 -133.3125 C 1164.0625 -111.144531 1130.886719 -22.394531 1181.675781 45.070312 C 1232.460938 112.53125 1303.648438 115.320312 1382.179688 78.324219 C 1460.707031 41.324219 1492.117188 -42.726562 1505.988281 -134.269531 C 1519.859375 -225.808594 1461.660156 -261.777344 1421.003906 -264.566406 Z M 1500.851562 -132.875 C 1487.421875 -43.753906 1456.890625 38.09375 1380.710938 74.140625 C 1304.53125 110.183594 1235.398438 107.394531 1186.078125 41.691406 C 1136.757812 -24.007812 1169.050781 -110.335938 1186.078125 -131.992188 C 1203.105469 -153.648438 1255.140625 -224.632812 1331.390625 -248.050781 C 1382.472656 -263.6875 1418.359375 -259.722656 1418.359375 -259.722656 C 1457.769531 -257.007812 1514.28125 -221.917969 1500.851562 -132.875 Z M 1500.851562 -132.875 " fill-opacity="1" fill-rule="nonzero"/></svg>